<svg width="73" height="30" viewBox="0 0 73 30" fill="none" xmlns="http://www.w3.org/2000/svg">
<path d="M0.72 16.904V13.576L14.48 5.864V9.256L3.888 15.112V15.368L14.48 21.192V24.616L0.72 16.904ZM27.4275 25.384C24.5902 25.384 22.4782 24.3813 21.0915 22.376C19.7262 20.3707 19.0435 17.5227 19.0435 13.832C19.0435 10.1413 19.7262 7.29333 21.0915 5.288C22.4782 3.28267 24.5902 2.28 27.4275 2.28C28.5155 2.28 29.4542 2.42933 30.2435 2.728C31.0542 3.00533 31.7475 3.4 32.3235 3.912C32.8995 4.40267 33.3795 4.98933 33.7635 5.672C34.1688 6.33333 34.4995 7.048 34.7555 7.816L31.5235 8.904C31.3528 8.392 31.1608 7.912 30.9475 7.464C30.7342 7.016 30.4675 6.632 30.1475 6.312C29.8275 5.992 29.4435 5.736 28.9955 5.544C28.5688 5.352 28.0355 5.256 27.3955 5.256C25.8168 5.256 24.6648 5.864 23.9395 7.08C23.2142 8.27467 22.8515 9.896 22.8515 11.944V15.72C22.8515 17.768 23.2142 19.4 23.9395 20.616C24.6648 21.8107 25.8168 22.408 27.3955 22.408C28.0355 22.408 28.5688 22.312 28.9955 22.12C29.4435 21.928 29.8275 21.672 30.1475 21.352C30.4675 21.032 30.7342 20.648 30.9475 20.2C31.1608 19.752 31.3528 19.272 31.5235 18.76L34.7555 19.848C34.4995 20.616 34.1688 21.3413 33.7635 22.024C33.3795 22.6853 32.8995 23.272 32.3235 23.784C31.7475 24.2747 31.0542 24.6693 30.2435 24.968C29.4542 25.2453 28.5155 25.384 27.4275 25.384ZM39.031 29.416L49.815 0.679998H52.919L42.135 29.416H39.031ZM58.2825 21.224L68.8745 15.368V15.112L58.2825 9.288V5.864L72.0425 13.576V16.904L58.2825 24.616V21.224Z" fill="#12F7D6"/>
</svg>
