<svg width="40" height="40" viewBox="0 0 40 40" fill="none" xmlns="http://www.w3.org/2000/svg">
<path fill-rule="evenodd" clip-rule="evenodd" d="M28 8.87866C27.1722 8.87866 26.3783 9.20751 25.7929 9.79288L16.2929 19.2929C16.1647 19.421 16.0738 19.5816 16.0299 19.7574L15.0299 23.7574C14.9447 24.0982 15.0445 24.4587 15.2929 24.7071C15.5413 24.9555 15.9018 25.0553 16.2425 24.9701L20.2425 23.9701C20.4184 23.9262 20.5789 23.8352 20.7071 23.7071L30.2071 14.2071C30.7925 13.6217 31.1213 12.8278 31.1213 12C31.1213 11.1722 30.7925 10.3782 30.2071 9.79288C29.6217 9.20751 28.8278 8.87866 28 8.87866ZM27.2071 11.2071C27.4174 10.9968 27.7026 10.8787 28 10.8787C28.2974 10.8787 28.5826 10.9968 28.7929 11.2071C29.0032 11.4174 29.1213 11.7026 29.1213 12C29.1213 12.2974 29.0032 12.5826 28.7929 12.7929L19.4888 22.097L17.3744 22.6256L17.903 20.5112L27.2071 11.2071Z" fill="white"/>
<path d="M12 11C11.2044 11 10.4413 11.3161 9.87868 11.8787C9.31607 12.4413 9 13.2044 9 14V28C9 28.7957 9.31607 29.5587 9.87868 30.1213C10.4413 30.6839 11.2043 31 12 31H26C26.7957 31 27.5587 30.6839 28.1213 30.1213C28.6839 29.5587 29 28.7957 29 28V21C29 20.4477 28.5523 20 28 20C27.4477 20 27 20.4477 27 21V28C27 28.2652 26.8946 28.5196 26.7071 28.7071C26.5196 28.8946 26.2652 29 26 29H12C11.7348 29 11.4804 28.8946 11.2929 28.7071C11.1054 28.5196 11 28.2652 11 28V14C11 13.7348 11.1054 13.4804 11.2929 13.2929C11.4804 13.1054 11.7348 13 12 13H19C19.5523 13 20 12.5523 20 12C20 11.4477 19.5523 11 19 11H12Z" fill="white"/>
</svg>
