<svg width="40" height="40" viewBox="0 0 40 40" fill="none" xmlns="http://www.w3.org/2000/svg">
<path fill-rule="evenodd" clip-rule="evenodd" d="M9.00007 13.9827C8.99991 13.9925 8.9999 14.0024 9.00002 14.0122V26C9.00002 27.6523 10.3477 29 12 29H28C29.6523 29 31 27.6523 31 26V14.0124C31.0002 14.0024 31.0001 13.9925 31 13.9825C30.9905 12.3382 29.6465 11 28 11H12C10.3535 11 9.00947 12.3383 9.00007 13.9827ZM11.1066 13.5539C11.272 13.2269 11.6121 13 12 13H28C28.388 13 28.7281 13.2269 28.8934 13.5539L20 19.7793L11.1066 13.5539ZM29 15.9207V26C29 26.5477 28.5477 27 28 27H12C11.4523 27 11 26.5477 11 26V15.9207L19.4266 21.8192C19.7709 22.0603 20.2292 22.0603 20.5735 21.8192L29 15.9207Z" fill="white"/>
</svg>
