<svg width="20" height="20" viewBox="0 0 20 20" fill="none" xmlns="http://www.w3.org/2000/svg">
<path d="M7.91016 3.06641L7.42188 3.125C7.42188 3.125 5.23193 3.36426 3.63281 4.64844H3.61328L3.59375 4.66797C3.23486 4.99756 3.07861 5.40283 2.83203 5.99609C2.58545 6.58936 2.32178 7.34619 2.08984 8.18359C1.62598 9.86084 1.25 11.8921 1.25 13.75V13.9062L1.32812 14.0625C1.90674 15.0781 2.93457 15.7251 3.88672 16.1719C4.83887 16.6187 5.66162 16.8555 6.23047 16.875L6.60156 16.8945L6.79688 16.5625L7.48047 15.3516C8.20557 15.5151 9.04053 15.625 10 15.625C10.9595 15.625 11.7944 15.5151 12.5195 15.3516L13.2031 16.5625L13.3984 16.8945L13.7695 16.875C14.3384 16.8555 15.1611 16.6187 16.1133 16.1719C17.0654 15.7251 18.0933 15.0781 18.6719 14.0625L18.75 13.9062V13.75C18.75 11.8921 18.374 9.86084 17.9102 8.18359C17.6782 7.34619 17.4146 6.58936 17.168 5.99609C16.9214 5.40283 16.7651 4.99756 16.4062 4.66797L16.3867 4.64844H16.3672C14.7681 3.36426 12.5781 3.125 12.5781 3.125L12.0898 3.06641L11.9141 3.51562C11.9141 3.51562 11.7334 3.97217 11.6211 4.49219C10.9131 4.39697 10.3345 4.375 10 4.375C9.66553 4.375 9.08691 4.39697 8.37891 4.49219C8.2666 3.97217 8.08594 3.51562 8.08594 3.51562L7.91016 3.06641ZM7.05078 4.49219C7.07764 4.58008 7.10449 4.65576 7.12891 4.72656C6.3208 4.92676 5.45898 5.23193 4.66797 5.72266L5.33203 6.77734C6.95312 5.77148 9.28223 5.625 10 5.625C10.7178 5.625 13.0469 5.77148 14.668 6.77734L15.332 5.72266C14.541 5.23193 13.6792 4.92676 12.8711 4.72656C12.8955 4.65576 12.9224 4.58008 12.9492 4.49219C13.5327 4.60938 14.646 4.87793 15.5664 5.60547C15.5615 5.60791 15.8008 5.96924 16.0156 6.48438C16.2354 7.01416 16.4795 7.71973 16.6992 8.51562C17.1216 10.0415 17.4536 11.8994 17.4805 13.5352C17.0874 14.1357 16.3574 14.6777 15.5859 15.0391C14.9121 15.354 14.3799 15.4688 14.0625 15.5273L13.75 15C13.9355 14.9316 14.1187 14.856 14.2773 14.7852C15.2393 14.3628 15.7617 13.9062 15.7617 13.9062L14.9414 12.9688C14.9414 12.9688 14.5898 13.291 13.7695 13.6523C12.9492 14.0137 11.6968 14.375 10 14.375C8.30322 14.375 7.05078 14.0137 6.23047 13.6523C5.41016 13.291 5.05859 12.9688 5.05859 12.9688L4.23828 13.9062C4.23828 13.9062 4.76074 14.3628 5.72266 14.7852C5.88135 14.856 6.06445 14.9316 6.25 15L5.9375 15.5273C5.62012 15.4688 5.08789 15.354 4.41406 15.0391C3.64258 14.6777 2.9126 14.1357 2.51953 13.5352C2.54639 11.8994 2.87842 10.0415 3.30078 8.51562C3.52051 7.71973 3.76465 7.01416 3.98438 6.48438C4.19922 5.96924 4.43848 5.60791 4.43359 5.60547C5.354 4.87793 6.46729 4.60938 7.05078 4.49219ZM7.8125 8.75C7.3291 8.75 6.90186 9.02588 6.64062 9.375C6.37939 9.72412 6.25 10.1538 6.25 10.625C6.25 11.0962 6.37939 11.5259 6.64062 11.875C6.90186 12.2241 7.3291 12.5 7.8125 12.5C8.2959 12.5 8.72314 12.2241 8.98438 11.875C9.24561 11.5259 9.375 11.0962 9.375 10.625C9.375 10.1538 9.24561 9.72412 8.98438 9.375C8.72314 9.02588 8.2959 8.75 7.8125 8.75ZM12.1875 8.75C11.7041 8.75 11.2769 9.02588 11.0156 9.375C10.7544 9.72412 10.625 10.1538 10.625 10.625C10.625 11.0962 10.7544 11.5259 11.0156 11.875C11.2769 12.2241 11.7041 12.5 12.1875 12.5C12.6709 12.5 13.0981 12.2241 13.3594 11.875C13.6206 11.5259 13.75 11.0962 13.75 10.625C13.75 10.1538 13.6206 9.72412 13.3594 9.375C13.0981 9.02588 12.6709 8.75 12.1875 8.75ZM7.8125 10C7.84668 10 7.89062 10.0122 7.96875 10.1172C8.04688 10.2222 8.125 10.4053 8.125 10.625C8.125 10.8447 8.04688 11.0278 7.96875 11.1328C7.89062 11.2378 7.84668 11.25 7.8125 11.25C7.77832 11.25 7.73438 11.2378 7.65625 11.1328C7.57812 11.0278 7.5 10.8447 7.5 10.625C7.5 10.4053 7.57812 10.2222 7.65625 10.1172C7.73438 10.0122 7.77832 10 7.8125 10ZM12.1875 10C12.2217 10 12.2656 10.0122 12.3438 10.1172C12.4219 10.2222 12.5 10.4053 12.5 10.625C12.5 10.8447 12.4219 11.0278 12.3438 11.1328C12.2656 11.2378 12.2217 11.25 12.1875 11.25C12.1533 11.25 12.1094 11.2378 12.0312 11.1328C11.9531 11.0278 11.875 10.8447 11.875 10.625C11.875 10.4053 11.9531 10.2222 12.0312 10.1172C12.1094 10.0122 12.1533 10 12.1875 10Z" fill="#12F7D6"/>
</svg>
