<svg width="20" height="20" viewBox="0 0 20 20" fill="none" xmlns="http://www.w3.org/2000/svg">
<path d="M9.99998 1.87225C8.02121 1.87234 6.10703 2.57651 4.59995 3.85879C3.09287 5.14107 2.09123 6.91777 1.77426 8.87099C1.45729 10.8242 1.84566 12.8265 2.8699 14.5195C3.89413 16.2126 5.48739 17.486 7.36458 18.1118C7.78125 18.1848 7.9375 17.9348 7.9375 17.716C7.9375 17.5181 7.92707 16.8618 7.92707 16.1639C5.83332 16.5493 5.29165 15.6535 5.12498 15.1848C4.94005 14.7289 4.64688 14.3249 4.27082 14.0077C3.97915 13.8514 3.56248 13.466 4.26039 13.4556C4.52688 13.4845 4.78247 13.5773 5.00551 13.7259C5.22854 13.8746 5.41245 14.0749 5.54165 14.3097C5.65562 14.5145 5.80888 14.6947 5.99264 14.8402C6.1764 14.9856 6.38704 15.0933 6.61251 15.1572C6.83797 15.221 7.07382 15.2398 7.30655 15.2123C7.53927 15.1849 7.76429 15.1118 7.96872 14.9972C8.00479 14.5736 8.1936 14.1775 8.49998 13.8827C6.64582 13.6744 4.70832 12.9556 4.70832 9.76811C4.6966 8.9399 5.00222 8.13859 5.56248 7.52853C5.30772 6.80871 5.33753 6.01877 5.64582 5.3202C5.64582 5.3202 6.34371 5.10144 7.93748 6.17436C9.30105 5.79934 10.7406 5.79934 12.1041 6.17436C13.6979 5.09103 14.3958 5.3202 14.3958 5.3202C14.7041 6.01876 14.734 6.80872 14.4791 7.52853C15.0411 8.13755 15.347 8.93956 15.3333 9.76811C15.3333 12.966 13.3854 13.6744 11.5312 13.8827C11.7301 14.0843 11.8833 14.3263 11.9803 14.5923C12.0774 14.8583 12.1161 15.1421 12.0937 15.4244C12.0937 16.539 12.0833 17.4348 12.0833 17.716C12.0833 17.9348 12.2396 18.1952 12.6562 18.1119C14.5301 17.4809 16.1188 16.2046 17.1387 14.5106C18.1585 12.8167 18.5432 10.8154 18.224 8.86412C17.9049 6.91279 16.9026 5.1384 15.3962 3.85768C13.8898 2.57696 11.9772 1.87328 9.99998 1.87225Z" fill="#12F7D6"/>
</svg>
