<svg width="14" height="14" viewBox="0 0 14 14" fill="none" xmlns="http://www.w3.org/2000/svg">
<path fill-rule="evenodd" clip-rule="evenodd" d="M5.8335 1.16669C5.36937 1.16669 4.92425 1.35106 4.59606 1.67925C4.26787 2.00744 4.0835 2.45256 4.0835 2.91669V3.50002H2.3335C1.367 3.50002 0.583496 4.28352 0.583496 5.25002V11.0834C0.583496 12.0499 1.367 12.8334 2.3335 12.8334H11.6668C12.6333 12.8334 13.4168 12.0499 13.4168 11.0834V5.25002C13.4168 4.28352 12.6333 3.50002 11.6668 3.50002H9.91683V2.91669C9.91683 2.45256 9.73246 2.00744 9.40427 1.67925C9.07608 1.35106 8.63096 1.16669 8.16683 1.16669H5.8335ZM8.75016 3.50002V2.91669C8.75016 2.76198 8.68871 2.6136 8.57931 2.50421C8.46991 2.39481 8.32154 2.33335 8.16683 2.33335H5.8335C5.67879 2.33335 5.53041 2.39481 5.42102 2.50421C5.31162 2.6136 5.25016 2.76198 5.25016 2.91669V3.50002H8.75016ZM5.25016 4.66669H8.75016V11.6667H5.25016V4.66669ZM4.0835 4.66669H2.3335C2.01133 4.66669 1.75016 4.92785 1.75016 5.25002V11.0834C1.75016 11.4055 2.01133 11.6667 2.3335 11.6667H4.0835V4.66669ZM9.91683 11.6667V4.66669H11.6668C11.989 4.66669 12.2502 4.92785 12.2502 5.25002V11.0834C12.2502 11.4055 11.989 11.6667 11.6668 11.6667H9.91683Z" fill="#12F7D6"/>
</svg>
