<svg width="32" height="32" viewBox="0 0 32 32" fill="none" xmlns="http://www.w3.org/2000/svg">
<path fill-rule="evenodd" clip-rule="evenodd" d="M17.333 23.9993H26.6663C28.8755 23.9993 30.6663 22.2085 30.6663 19.9993V6.66602C30.6663 4.45688 28.8755 2.66602 26.6663 2.66602H5.33301C3.12387 2.66602 1.33301 4.45688 1.33301 6.66602V19.9993C1.33301 22.2085 3.12387 23.9993 5.33301 23.9993H14.6663V26.666H10.6663C9.92996 26.666 9.33301 27.263 9.33301 27.9993C9.33301 28.7357 9.92996 29.3327 10.6663 29.3327H21.333C22.0694 29.3327 22.6663 28.7357 22.6663 27.9993C22.6663 27.263 22.0694 26.666 21.333 26.666H17.333V23.9993ZM5.33301 5.33268C4.59663 5.33268 3.99967 5.92964 3.99967 6.66602V19.9993C3.99967 20.7357 4.59663 21.3327 5.33301 21.3327H26.6663C27.4027 21.3327 27.9997 20.7357 27.9997 19.9993V6.66602C27.9997 5.92964 27.4027 5.33268 26.6663 5.33268H5.33301Z" fill="#292F36"/>
</svg>
