<svg width="14" height="14" viewBox="0 0 14 14" fill="none" xmlns="http://www.w3.org/2000/svg">
<path fill-rule="evenodd" clip-rule="evenodd" d="M6.99984 3.5C5.71117 3.5 4.6665 4.54467 4.6665 5.83333C4.6665 7.122 5.71117 8.16667 6.99984 8.16667C8.2885 8.16667 9.33317 7.122 9.33317 5.83333C9.33317 4.54467 8.2885 3.5 6.99984 3.5ZM5.83317 5.83333C5.83317 5.189 6.3555 4.66667 6.99984 4.66667C7.64417 4.66667 8.1665 5.189 8.1665 5.83333C8.1665 6.47767 7.64417 7 6.99984 7C6.3555 7 5.83317 6.47767 5.83317 5.83333Z" fill="#12F7D6"/>
<path fill-rule="evenodd" clip-rule="evenodd" d="M6.67595 13.9018C6.67611 13.9019 6.67626 13.902 6.99984 13.4167L6.67595 13.9018C6.87189 14.0324 7.12747 14.0327 7.32341 13.902L6.99984 13.4167C7.32341 13.902 7.32324 13.9021 7.32341 13.902L7.3254 13.9007L7.32928 13.8981L7.34265 13.8891C7.35401 13.8813 7.37021 13.8703 7.39093 13.8559C7.43236 13.8272 7.4919 13.7854 7.56696 13.7312C7.71702 13.6228 7.92946 13.4646 8.18352 13.2623C8.69073 12.8584 9.36853 12.275 10.0483 11.5574C11.384 10.1475 12.8332 8.10947 12.8332 5.83333C12.8332 4.28624 12.2186 2.80251 11.1246 1.70854C10.0307 0.614581 8.54693 0 6.99984 0C5.45274 0 3.96901 0.614581 2.87505 1.70854C1.78109 2.80251 1.1665 4.28624 1.1665 5.83333C1.1665 8.10947 2.61566 10.1475 3.95136 11.5574C4.63115 12.275 5.30895 12.8584 5.81615 13.2623C6.07021 13.4646 6.28266 13.6228 6.43271 13.7312C6.50777 13.7854 6.56731 13.8272 6.60875 13.8559C6.62946 13.8703 6.64566 13.8813 6.65702 13.8891L6.67039 13.8981L6.67428 13.9007L6.67595 13.9018ZM3.70001 2.5335C4.57518 1.65833 5.76216 1.16667 6.99984 1.16667C8.23751 1.16667 9.4245 1.65833 10.2997 2.5335C11.1748 3.40867 11.6665 4.59566 11.6665 5.83333C11.6665 7.64053 10.4907 9.39415 9.20136 10.7551C8.56865 11.4229 7.93395 11.9697 7.45678 12.3497C7.27919 12.4911 7.12407 12.6089 6.99984 12.7007C6.8756 12.6089 6.72049 12.4911 6.5429 12.3497C6.06573 11.9697 5.43103 11.4229 4.79831 10.7551C3.50902 9.39415 2.33317 7.64053 2.33317 5.83333C2.33317 4.59566 2.82484 3.40867 3.70001 2.5335Z" fill="#12F7D6"/>
</svg>
