<svg width="14" height="14" viewBox="0 0 14 14" fill="none" xmlns="http://www.w3.org/2000/svg">
<path fill-rule="evenodd" clip-rule="evenodd" d="M0.583575 3.48988C0.58348 3.49564 0.583471 3.50139 0.583546 3.50715V10.5C0.583546 11.4638 1.36971 12.25 2.33355 12.25H11.6669C12.6307 12.25 13.4169 11.4638 13.4169 10.5V3.50721C13.417 3.50141 13.4169 3.4956 13.4169 3.4898C13.4113 2.53063 12.6273 1.75 11.6669 1.75H2.33355C1.37309 1.75 0.589053 2.53067 0.583575 3.48988ZM1.81238 3.2398C1.90885 3.04904 2.10724 2.91667 2.33355 2.91667H11.6669C11.8932 2.91667 12.0916 3.04904 12.188 3.2398L7.00021 6.87128L1.81238 3.2398ZM12.2502 4.62038V10.5C12.2502 10.8195 11.9864 11.0833 11.6669 11.0833H2.33355C2.01405 11.0833 1.75021 10.8195 1.75021 10.5V4.62038L6.66569 8.06122C6.86655 8.20182 7.13388 8.20182 7.33473 8.06122L12.2502 4.62038Z" fill="#12F7D6"/>
</svg>
