<svg width="120" height="120" viewBox="0 0 144 144" fill="none" xmlns="http://www.w3.org/2000/svg">
<rect width="144" height="144" rx="72" fill="#E7A020"/>
<path d="M71.9883 46C71.2583 46 70.5284 46.1791 69.8984 46.5391L50.0781 57.9805C48.7981 58.7205 48 60.1216 48 61.6016V82.3594C48 83.8594 48.7981 85.2405 50.0781 85.9805L55.2812 88.9805C57.8013 90.2205 58.6998 90.2188 59.8398 90.2188C63.5798 90.2188 65.7188 87.9591 65.7188 84.0391V62.6211C65.7188 62.3011 65.4606 62.0391 65.1406 62.0391H62.6406C62.3006 62.0391 62.0586 62.3011 62.0586 62.6211V84.0195C62.0586 85.7795 60.2408 87.4991 57.3008 86.0391L51.8594 82.8984C51.6594 82.7984 51.5391 82.5794 51.5391 82.3594V61.6211C51.5391 61.3811 51.6594 61.1786 51.8594 61.0586L71.6797 49.6211C71.8597 49.5011 72.1008 49.5011 72.3008 49.6211L92.1211 61.0586C92.3211 61.1786 92.4414 61.3816 92.4414 61.6016V82.3594C92.4414 82.5794 92.3206 82.7984 92.1406 82.8984L72.3008 94.3594C72.1208 94.4594 71.8597 94.4594 71.6797 94.3594L66.5781 91.3398C66.4381 91.2398 66.2416 91.2208 66.1016 91.3008C64.6816 92.1008 64.4216 92.2002 63.1016 92.6602C62.7816 92.7602 62.2812 92.9595 63.2812 93.5195L69.8984 97.4414C70.5384 97.8014 71.2605 98 71.9805 98C72.7205 98 73.4381 97.8014 74.0781 97.4414L93.9219 85.9805C95.2019 85.2405 96 83.8594 96 82.3594V61.6211C96 60.1211 95.2019 58.74 93.9219 58L74.0781 46.5391C73.4481 46.1791 72.7183 46 71.9883 46ZM77.3203 62.0117C71.6603 62.0117 68.2812 64.4102 68.2812 68.4102C68.2812 72.7502 71.6381 73.9483 77.0781 74.4883C83.5781 75.1283 84.0781 76.0911 84.0781 77.3711C84.0781 79.5711 82.3011 80.5117 78.1211 80.5117C72.8611 80.5117 71.7003 79.1898 71.3203 76.5898C71.2803 76.3098 71.0417 76.1094 70.7617 76.1094H68.1797C67.8597 76.1094 67.6211 76.3719 67.6211 76.6719C67.6211 80.0119 69.4411 83.9883 78.1211 83.9883C84.4011 83.9883 88 81.5114 88 77.1914C88 72.9114 85.0995 71.7692 79.0195 70.9492C72.8395 70.1492 72.2188 69.7291 72.2188 68.2891C72.2188 67.0891 72.7603 65.5117 77.3203 65.5117C81.3803 65.5117 82.8995 66.3889 83.5195 69.1289C83.5795 69.3889 83.7981 69.5898 84.0781 69.5898H86.6602C86.8202 69.5898 86.9581 69.5106 87.0781 69.3906C87.1781 69.2906 87.2388 69.1292 87.2188 68.9492C86.8187 64.2292 83.6803 62.0117 77.3203 62.0117Z" fill="white"/>
</svg>
