<svg width="120" height="120" viewBox="0 0 144 144" fill="none" xmlns="http://www.w3.org/2000/svg">
<rect width="144" height="144" rx="72" fill="#28A9E0"/>
<path d="M62.8086 46.7197C61.118 46.6076 59.4564 46.9101 58 47.751C56.0581 48.8721 54.7649 50.7859 54.0703 52.9892C53.3757 55.1926 53.2152 57.7319 53.4688 60.5049C53.4944 60.7857 53.5438 61.0785 53.5781 61.3642C53.313 61.4776 53.0339 61.5818 52.7773 61.7002C50.2491 62.8671 48.1312 64.2743 46.5703 65.9775C45.0094 67.6807 44 69.7586 44 72.001C44 74.2433 45.0094 76.3212 46.5703 78.0244C48.1312 79.7276 50.2491 81.1348 52.7773 82.3017C53.0339 82.4201 53.313 82.5243 53.5781 82.6377C53.5438 82.9234 53.4944 83.2162 53.4688 83.497C53.2152 86.27 53.3757 88.8093 54.0703 91.0127C54.7649 93.216 56.0581 95.1298 58 96.251C59.9419 97.3721 62.2445 97.5363 64.5 97.0361C66.7555 96.536 69.0339 95.4039 71.3086 93.7978C71.5389 93.6352 71.7698 93.4468 72 93.2744C72.2302 93.4468 72.4611 93.6352 72.6914 93.7978C74.9661 95.4039 77.2445 96.536 79.5 97.0361C81.7555 97.5363 84.0581 97.3721 86 96.251C87.9419 95.1298 89.2351 93.216 89.9297 91.0127C90.6243 88.8093 90.7848 86.27 90.5312 83.497C90.5056 83.2162 90.4562 82.9234 90.4219 82.6377C90.687 82.5243 90.9661 82.4201 91.2227 82.3017C93.7509 81.1348 95.8688 79.7276 97.4297 78.0244C98.9906 76.3212 100 74.2433 100 72.001C100 69.7586 98.9906 67.6807 97.4297 65.9775C95.8688 64.2743 93.7509 62.8671 91.2227 61.7002C90.9661 61.5818 90.687 61.4776 90.4219 61.3642C90.4562 61.0785 90.5056 60.7857 90.5312 60.5049C90.7848 57.7319 90.6243 55.1926 89.9297 52.9892C89.2351 50.7859 87.9419 48.8721 86 47.751C84.0581 46.6298 81.7555 46.4657 79.5 46.9658C77.2445 47.4659 74.9661 48.598 72.6914 50.2041C72.4611 50.3667 72.2302 50.5551 72 50.7275C71.7698 50.5551 71.5389 50.3667 71.3086 50.2041C69.0339 48.598 66.7555 47.4659 64.5 46.9658C63.9361 46.8408 63.3721 46.7571 62.8086 46.7197ZM62.5469 50.7041C62.8877 50.7297 63.25 50.7863 63.6367 50.872C65.1481 51.2072 66.9581 52.0555 68.8672 53.3838C67.2772 54.8921 65.7124 56.6081 64.2188 58.5283C61.8117 58.8617 59.5444 59.3553 57.4453 59.9775C57.2498 57.661 57.4175 55.6684 57.8828 54.1924C58.3592 52.6813 59.0722 51.7515 60 51.2158C60.6959 50.814 61.5244 50.6271 62.5469 50.7041ZM81.4531 50.7041C82.4756 50.6271 83.3041 50.814 84 51.2158C84.9278 51.7515 85.6408 52.6813 86.1172 54.1924C86.5825 55.6684 86.7502 57.661 86.5547 59.9775C84.4556 59.3553 82.1883 58.8617 79.7812 58.5283C78.2876 56.6081 76.7228 54.8921 75.1328 53.3838C77.0419 52.0555 78.8519 51.2072 80.3633 50.872C80.75 50.7863 81.1123 50.7297 81.4531 50.7041ZM72 55.9189C72.703 56.5689 73.4047 57.2916 74.1055 58.0478C73.408 58.0232 72.711 58.001 72 58.001C71.289 58.001 70.592 58.0232 69.8945 58.0478C70.5953 57.2916 71.297 56.5689 72 55.9189ZM72 62.001C73.9291 62.001 75.7988 62.1144 77.5977 62.3056C78.6627 63.7679 79.6956 65.3303 80.6602 67.001C81.6248 68.6717 82.4615 70.3473 83.1953 72.001C82.4615 73.6546 81.6248 75.3302 80.6602 77.001C79.6956 78.6716 78.6627 80.234 77.5977 81.6963C75.7988 81.8875 73.9291 82.001 72 82.001C70.0709 82.001 68.2012 81.8875 66.4023 81.6963C65.3373 80.234 64.3044 78.6716 63.3398 77.001C62.3752 75.3302 61.5385 73.6546 60.8047 72.001C61.5385 70.3473 62.3752 68.6717 63.3398 67.001C64.3044 65.3303 65.3373 63.7679 66.4023 62.3056C68.2012 62.1144 70.0709 62.001 72 62.001ZM60.9688 63.2002C60.5987 63.7918 60.2305 64.3853 59.875 65.001C59.5195 65.6167 59.1906 66.2323 58.8633 66.8486C58.5592 65.8651 58.2854 64.8944 58.0742 63.9619C58.9882 63.6782 59.9639 63.4289 60.9688 63.2002ZM83.0312 63.2002C84.0361 63.4289 85.0118 63.6782 85.9258 63.9619C85.7146 64.8944 85.4408 65.8651 85.1367 66.8486C84.8094 66.2323 84.4805 65.6167 84.125 65.001C83.7695 64.3853 83.4013 63.7918 83.0312 63.2002ZM54.3086 65.4072C54.8197 67.5379 55.5255 69.7478 56.4414 72.001C55.5255 74.2541 54.8197 76.464 54.3086 78.5947C52.2056 77.6059 50.5648 76.4619 49.5195 75.3213C48.4491 74.1532 48 73.0723 48 72.001C48 70.9296 48.4491 69.8487 49.5195 68.6806C50.5648 67.54 52.2056 66.396 54.3086 65.4072ZM89.6914 65.4072C91.7944 66.396 93.4352 67.54 94.4805 68.6806C95.5509 69.8487 96 70.9296 96 72.001C96 73.0723 95.5509 74.1532 94.4805 75.3213C93.4352 76.4619 91.7944 77.6059 89.6914 78.5947C89.1803 76.464 88.4745 74.2541 87.5586 72.001C88.4745 69.7478 89.1803 67.5379 89.6914 65.4072ZM72 66.001C68.71 66.001 66 68.7109 66 72.001C66 75.291 68.71 78.001 72 78.001C75.29 78.001 78 75.291 78 72.001C78 68.7109 75.29 66.001 72 66.001ZM72 70.001C73.1283 70.001 74 70.8727 74 72.001C74 73.1292 73.1283 74.001 72 74.001C70.8717 74.001 70 73.1292 70 72.001C70 70.8727 70.8717 70.001 72 70.001ZM58.8633 77.1533C59.1906 77.7696 59.5195 78.3853 59.875 79.001C60.2305 79.6167 60.5987 80.2101 60.9688 80.8017C59.9639 80.573 58.9882 80.3237 58.0742 80.04C58.2854 79.1075 58.5592 78.1368 58.8633 77.1533ZM85.1367 77.1533C85.4408 78.1368 85.7146 79.1075 85.9258 80.04C85.0118 80.3237 84.0361 80.573 83.0312 80.8017C83.4013 80.2101 83.7695 79.6167 84.125 79.001C84.4805 78.3853 84.8094 77.7696 85.1367 77.1533ZM57.4453 84.0244C59.5444 84.6466 61.8117 85.1402 64.2188 85.4736C65.7124 87.3938 67.2772 89.1098 68.8672 90.6181C66.9581 91.9464 65.1481 92.7947 63.6367 93.1299C62.0899 93.4729 60.9278 93.3218 60 92.7861C59.0722 92.2504 58.3592 91.3206 57.8828 89.8095C57.4175 88.3336 57.2498 86.3409 57.4453 84.0244ZM86.5547 84.0244C86.7502 86.3409 86.5825 88.3336 86.1172 89.8095C85.6408 91.3206 84.9278 92.2504 84 92.7861C83.0722 93.3218 81.9101 93.4729 80.3633 93.1299C78.8519 92.7947 77.0419 91.9464 75.1328 90.6181C76.7228 89.1098 78.2876 87.3938 79.7812 85.4736C82.1883 85.1402 84.4556 84.6466 86.5547 84.0244ZM69.8945 85.9541C70.592 85.9787 71.289 86.001 72 86.001C72.711 86.001 73.408 85.9787 74.1055 85.9541C73.4047 86.7103 72.703 87.433 72 88.083C71.297 87.433 70.5953 86.7103 69.8945 85.9541Z" fill="white"/>
</svg>
