<svg width="32" height="32" viewBox="0 0 32 32" fill="none" xmlns="http://www.w3.org/2000/svg">
<path d="M15.9997 22.6673C15.2633 22.6673 14.6663 23.2643 14.6663 24.0007C14.6663 24.737 15.2633 25.334 15.9997 25.334H16.013C16.7494 25.334 17.3463 24.737 17.3463 24.0007C17.3463 23.2643 16.7494 22.6673 16.013 22.6673H15.9997Z" fill="#292F36"/>
<path fill-rule="evenodd" clip-rule="evenodd" d="M9.33301 1.33398C7.12387 1.33398 5.33301 3.12485 5.33301 5.33398V26.6673C5.33301 28.8765 7.12387 30.6673 9.33301 30.6673H22.6663C24.8755 30.6673 26.6663 28.8765 26.6663 26.6673V5.33398C26.6663 3.12485 24.8755 1.33398 22.6663 1.33398H9.33301ZM7.99967 5.33398C7.99967 4.5976 8.59663 4.00065 9.33301 4.00065H22.6663C23.4027 4.00065 23.9997 4.5976 23.9997 5.33398V26.6673C23.9997 27.4037 23.4027 28.0006 22.6663 28.0006H9.33301C8.59663 28.0006 7.99967 27.4037 7.99967 26.6673V5.33398Z" fill="#292F36"/>
</svg>
