<svg width="20" height="20" viewBox="0 0 20 20" fill="none" xmlns="http://www.w3.org/2000/svg">
<g clip-path="url(#clip0_518_655)">
<path fill-rule="evenodd" clip-rule="evenodd" d="M8.11701 6.26551C8.89493 5.86187 9.78031 5.71379 10.6472 5.84235C11.5315 5.97348 12.3502 6.38554 12.9823 7.01767C13.6145 7.64979 14.0265 8.46847 14.1577 9.35276C14.2862 10.2197 14.1381 11.1051 13.7345 11.883C13.3308 12.6609 12.6922 13.2917 11.9093 13.6858C11.1265 14.0798 10.2394 14.2169 9.3741 14.0777C8.50882 13.9385 7.70949 13.5299 7.08978 12.9102C6.47007 12.2905 6.06154 11.4912 5.92231 10.6259C5.78307 9.76063 5.92022 8.87349 6.31424 8.09065C6.70826 7.30782 7.3391 6.66916 8.11701 6.26551ZM10.4028 7.49098C9.88261 7.41385 9.35138 7.5027 8.88463 7.74489C8.41788 7.98707 8.03938 8.37027 7.80297 8.83997C7.56655 9.30967 7.48427 9.84196 7.5678 10.3611C7.65135 10.8803 7.89646 11.3599 8.26829 11.7317C8.64011 12.1035 9.11972 12.3487 9.63888 12.4322C10.158 12.5157 10.6903 12.4334 11.16 12.197C11.6297 11.9606 12.0129 11.5821 12.2551 11.1154C12.4973 10.6486 12.5861 10.1174 12.509 9.59723C12.4303 9.06666 12.1831 8.57545 11.8038 8.19618C11.4245 7.8169 10.9333 7.56966 10.4028 7.49098Z" fill="#12F7D6"/>
<path d="M14.5834 4.58334C14.1231 4.58334 13.75 4.95643 13.75 5.41667C13.75 5.87691 14.1231 6.25 14.5834 6.25H14.5917C15.0519 6.25 15.425 5.87691 15.425 5.41667C15.425 4.95643 15.0519 4.58334 14.5917 4.58334H14.5834Z" fill="#12F7D6"/>
<path fill-rule="evenodd" clip-rule="evenodd" d="M0.833374 5.83334C0.833374 3.07191 3.07195 0.833336 5.83337 0.833336H14.1667C16.9281 0.833336 19.1667 3.07191 19.1667 5.83334V14.1667C19.1667 16.9281 16.9281 19.1667 14.1667 19.1667H5.83337C3.07195 19.1667 0.833374 16.9281 0.833374 14.1667V5.83334ZM5.83337 2.5C3.99242 2.5 2.50004 3.99239 2.50004 5.83334V14.1667C2.50004 16.0076 3.99242 17.5 5.83337 17.5H14.1667C16.0077 17.5 17.5 16.0076 17.5 14.1667V5.83334C17.5 3.99239 16.0077 2.5 14.1667 2.5H5.83337Z" fill="#12F7D6"/>
</g>
<defs>
<clipPath id="clip0_518_655">
<rect width="20" height="20" fill="white"/>
</clipPath>
</defs>
</svg>
