<svg width="40" height="40" viewBox="0 0 40 40" fill="none" xmlns="http://www.w3.org/2000/svg">
<rect width="40" height="40" rx="20" fill="#43454D"/>
<path fill-rule="evenodd" clip-rule="evenodd" d="M9.00014 13.9827C8.99997 13.9925 8.99996 14.0024 9.00009 14.0122V26C9.00009 27.6523 10.3478 29 12.0001 29H28.0001C29.6524 29 31.0001 27.6523 31.0001 26V14.0124C31.0002 14.0024 31.0002 13.9925 31 13.9825C30.9906 12.3382 29.6465 11 28.0001 11H12.0001C10.3536 11 9.00953 12.3383 9.00014 13.9827ZM11.1067 13.5539C11.272 13.2269 11.6121 13 12.0001 13H28.0001C28.3881 13 28.7281 13.2269 28.8935 13.5539L20.0001 19.7793L11.1067 13.5539ZM29.0001 15.9207V26C29.0001 26.5477 28.5478 27 28.0001 27H12.0001C11.4524 27 11.0001 26.5477 11.0001 26V15.9207L19.4266 21.8192C19.7709 22.0603 20.2292 22.0603 20.5735 21.8192L29.0001 15.9207Z" fill="#12F7D6"/>
</svg>
