<svg width="66" height="378" viewBox="0 0 66 378" fill="none" xmlns="http://www.w3.org/2000/svg">
<rect x="0.5" y="0.5" width="65" height="377" rx="32.5" fill="#1A1E23"/>
<rect x="0.5" y="0.5" width="65" height="377" rx="32.5" stroke="white"/>
<rect x="13.5" y="9.5" width="39" height="39" rx="19.5" fill="white"/>
<rect x="13.5" y="9.5" width="39" height="39" rx="19.5" stroke="black"/>
<path fill-rule="evenodd" clip-rule="evenodd" d="M24 19C23.4477 19 23 19.4477 23 20V27C23 27.5523 23.4477 28 24 28H31C31.5523 28 32 27.5523 32 27V20C32 19.4477 31.5523 19 31 19H24ZM25 26V21H30V26H25Z" fill="#292F36"/>
<path fill-rule="evenodd" clip-rule="evenodd" d="M35 19C34.4477 19 34 19.4477 34 20V27C34 27.5523 34.4477 28 35 28H42C42.5523 28 43 27.5523 43 27V20C43 19.4477 42.5523 19 42 19H35ZM36 26V21H41V26H36Z" fill="#292F36"/>
<path fill-rule="evenodd" clip-rule="evenodd" d="M34 31C34 30.4477 34.4477 30 35 30H42C42.5523 30 43 30.4477 43 31V38C43 38.5523 42.5523 39 42 39H35C34.4477 39 34 38.5523 34 38V31ZM36 32V37H41V32H36Z" fill="#292F36"/>
<path fill-rule="evenodd" clip-rule="evenodd" d="M24 30C23.4477 30 23 30.4477 23 31V38C23 38.5523 23.4477 39 24 39H31C31.5523 39 32 38.5523 32 38V31C32 30.4477 31.5523 30 31 30H24ZM25 37V32H30V37H25Z" fill="#292F36"/>
<path fill-rule="evenodd" clip-rule="evenodd" d="M33 83C30.2386 83 28 85.2386 28 88C28 90.7614 30.2386 93 33 93C35.7614 93 38 90.7614 38 88C38 85.2386 35.7614 83 33 83ZM30 88C30 86.3431 31.3431 85 33 85C34.6569 85 36 86.3431 36 88C36 89.6569 34.6569 91 33 91C31.3431 91 30 89.6569 30 88Z" fill="white"/>
<path d="M29 95C27.6739 95 26.4021 95.5268 25.4645 96.4645C24.5268 97.4021 24 98.6739 24 100V102C24 102.552 24.4477 103 25 103C25.5523 103 26 102.552 26 102V100C26 99.2043 26.3161 98.4413 26.8787 97.8787C27.4413 97.3161 28.2044 97 29 97H37C37.7956 97 38.5587 97.3161 39.1213 97.8787C39.6839 98.4413 40 99.2044 40 100V102C40 102.552 40.4477 103 41 103C41.5523 103 42 102.552 42 102V100C42 98.6739 41.4732 97.4021 40.5355 96.4645C39.5979 95.5268 38.3261 95 37 95H29Z" fill="white"/>
<path d="M29.7071 151.707C30.0976 151.317 30.0976 150.683 29.7071 150.293C29.3166 149.902 28.6834 149.902 28.2929 150.293L22.2929 156.293C21.9024 156.683 21.9024 157.317 22.2929 157.707L28.2929 163.707C28.6834 164.098 29.3166 164.098 29.7071 163.707C30.0976 163.317 30.0976 162.683 29.7071 162.293L24.4142 157L29.7071 151.707Z" fill="white"/>
<path d="M37.7071 150.293C37.3166 149.902 36.6834 149.902 36.2929 150.293C35.9024 150.683 35.9024 151.317 36.2929 151.707L41.5858 157L36.2929 162.293C35.9024 162.683 35.9024 163.317 36.2929 163.707C36.6834 164.098 37.3166 164.098 37.7071 163.707L43.7071 157.707C44.0976 157.317 44.0976 156.683 43.7071 156.293L37.7071 150.293Z" fill="white"/>
<path fill-rule="evenodd" clip-rule="evenodd" d="M34 227H41C42.6569 227 44 225.657 44 224V214C44 212.343 42.6569 211 41 211H25C23.3431 211 22 212.343 22 214V224C22 225.657 23.3431 227 25 227H32V229H29C28.4477 229 28 229.448 28 230C28 230.552 28.4477 231 29 231H37C37.5523 231 38 230.552 38 230C38 229.448 37.5523 229 37 229H34V227ZM25 213C24.4477 213 24 213.448 24 214V224C24 224.552 24.4477 225 25 225H41C41.5523 225 42 224.552 42 224V214C42 213.448 41.5523 213 41 213H25Z" fill="white"/>
<path fill-rule="evenodd" clip-rule="evenodd" d="M41 273.879C40.1722 273.879 39.3783 274.208 38.7929 274.793L29.2929 284.293C29.1647 284.421 29.0738 284.582 29.0299 284.757L28.0299 288.757C27.9447 289.098 28.0445 289.459 28.2929 289.707C28.5413 289.955 28.9018 290.055 29.2425 289.97L33.2425 288.97C33.4184 288.926 33.5789 288.835 33.7071 288.707L43.2071 279.207C43.7925 278.622 44.1213 277.828 44.1213 277C44.1213 276.172 43.7925 275.378 43.2071 274.793C42.6217 274.208 41.8278 273.879 41 273.879ZM40.2071 276.207C40.4174 275.997 40.7026 275.879 41 275.879C41.2974 275.879 41.5826 275.997 41.7929 276.207C42.0032 276.417 42.1213 276.703 42.1213 277C42.1213 277.297 42.0032 277.583 41.7929 277.793L32.4888 287.097L30.3744 287.626L30.903 285.511L40.2071 276.207Z" fill="white"/>
<path d="M25 276C24.2044 276 23.4413 276.316 22.8787 276.879C22.3161 277.441 22 278.204 22 279V293C22 293.796 22.3161 294.559 22.8787 295.121C23.4413 295.684 24.2043 296 25 296H39C39.7957 296 40.5587 295.684 41.1213 295.121C41.6839 294.559 42 293.796 42 293V286C42 285.448 41.5523 285 41 285C40.4477 285 40 285.448 40 286V293C40 293.265 39.8946 293.52 39.7071 293.707C39.5196 293.895 39.2652 294 39 294H25C24.7348 294 24.4804 293.895 24.2929 293.707C24.1054 293.52 24 293.265 24 293V279C24 278.735 24.1054 278.48 24.2929 278.293C24.4804 278.105 24.7348 278 25 278H32C32.5523 278 33 277.552 33 277C33 276.448 32.5523 276 32 276H25Z" fill="white"/>
<path fill-rule="evenodd" clip-rule="evenodd" d="M22.0001 342.983C21.9999 342.993 21.9999 343.002 22 343.012V355C22 356.652 23.3477 358 25 358H41C42.6523 358 44 356.652 44 355V343.012C44.0002 343.002 44.0001 342.992 44 342.983C43.9905 341.338 42.6465 340 41 340H25C23.3535 340 22.0095 341.338 22.0001 342.983ZM24.1066 342.554C24.272 342.227 24.6121 342 25 342H41C41.388 342 41.7281 342.227 41.8934 342.554L33 348.779L24.1066 342.554ZM42 344.921V355C42 355.548 41.5477 356 41 356H25C24.4523 356 24 355.548 24 355V344.921L32.4266 350.819C32.7709 351.06 33.2292 351.06 33.5735 350.819L42 344.921Z" fill="white"/>
</svg>
