<svg width="1024" height="143" viewBox="0 0 1024 143" fill="none" xmlns="http://www.w3.org/2000/svg">
<g clip-path="url(#clip0_571_982)">
<path fill-rule="evenodd" clip-rule="evenodd" d="M496 16C496 7.16344 503.163 0 512 0C520.837 0 528 7.16344 528 16V28C528 36.8366 520.837 44 512 44H510V43.8762C502.107 42.892 496 36.1592 496 28V16ZM512 40C518.627 40 524 34.6274 524 28V16C524 9.37258 518.627 4 512 4C505.373 4 500 9.37258 500 16V28C500 34.6274 505.373 40 512 40Z" fill="#12F7D6"/>
<path d="M513.334 9.16602V16.4993H510.667V9.16602H513.334Z" fill="#12F7D6"/>
</g>
<path d="M512.5 60C512.5 59.7239 512.276 59.5 512 59.5C511.724 59.5 511.5 59.7239 511.5 60H512.5ZM512 142.887L514.887 140L512 137.113L509.113 140L512 142.887ZM511.5 62.8571C511.5 63.1333 511.724 63.3571 512 63.3571C512.276 63.3571 512.5 63.1333 512.5 62.8571H511.5ZM512.5 68.5714C512.5 68.2953 512.276 68.0714 512 68.0714C511.724 68.0714 511.5 68.2953 511.5 68.5714H512.5ZM511.5 74.2857C511.5 74.5619 511.724 74.7857 512 74.7857C512.276 74.7857 512.5 74.5619 512.5 74.2857H511.5ZM512.5 80C512.5 79.7239 512.276 79.5 512 79.5C511.724 79.5 511.5 79.7239 511.5 80H512.5ZM511.5 85.7143C511.5 85.9904 511.724 86.2143 512 86.2143C512.276 86.2143 512.5 85.9904 512.5 85.7143H511.5ZM512.5 91.4286C512.5 91.1524 512.276 90.9286 512 90.9286C511.724 90.9286 511.5 91.1524 511.5 91.4286H512.5ZM511.5 97.1429C511.5 97.419 511.724 97.6429 512 97.6429C512.276 97.6429 512.5 97.419 512.5 97.1429H511.5ZM512.5 102.857C512.5 102.581 512.276 102.357 512 102.357C511.724 102.357 511.5 102.581 511.5 102.857H512.5ZM511.5 108.571C511.5 108.848 511.724 109.071 512 109.071C512.276 109.071 512.5 108.848 512.5 108.571H511.5ZM512.5 114.286C512.5 114.01 512.276 113.786 512 113.786C511.724 113.786 511.5 114.01 511.5 114.286H512.5ZM511.5 120C511.5 120.276 511.724 120.5 512 120.5C512.276 120.5 512.5 120.276 512.5 120H511.5ZM512.5 125.714C512.5 125.438 512.276 125.214 512 125.214C511.724 125.214 511.5 125.438 511.5 125.714H512.5ZM511.5 131.429C511.5 131.705 511.724 131.929 512 131.929C512.276 131.929 512.5 131.705 512.5 131.429H511.5ZM512.5 137.143C512.5 136.867 512.276 136.643 512 136.643C511.724 136.643 511.5 136.867 511.5 137.143H512.5ZM511.5 60V62.8571H512.5V60H511.5ZM511.5 68.5714V74.2857H512.5V68.5714H511.5ZM511.5 80V85.7143H512.5V80H511.5ZM511.5 91.4286V97.1429H512.5V91.4286H511.5ZM511.5 102.857V108.571H512.5V102.857H511.5ZM511.5 114.286V120H512.5V114.286H511.5ZM511.5 125.714V131.429H512.5V125.714H511.5ZM511.5 137.143V140H512.5V137.143H511.5ZM512.5 60C512.5 59.7239 512.276 59.5 512 59.5C511.724 59.5 511.5 59.7239 511.5 60H512.5ZM512 142.887L514.887 140L512 137.113L509.113 140L512 142.887ZM511.5 62.8571C511.5 63.1333 511.724 63.3571 512 63.3571C512.276 63.3571 512.5 63.1333 512.5 62.8571H511.5ZM512.5 68.5714C512.5 68.2953 512.276 68.0714 512 68.0714C511.724 68.0714 511.5 68.2953 511.5 68.5714H512.5ZM511.5 74.2857C511.5 74.5619 511.724 74.7857 512 74.7857C512.276 74.7857 512.5 74.5619 512.5 74.2857H511.5ZM512.5 80C512.5 79.7239 512.276 79.5 512 79.5C511.724 79.5 511.5 79.7239 511.5 80H512.5ZM511.5 85.7143C511.5 85.9904 511.724 86.2143 512 86.2143C512.276 86.2143 512.5 85.9904 512.5 85.7143H511.5ZM512.5 91.4286C512.5 91.1524 512.276 90.9286 512 90.9286C511.724 90.9286 511.5 91.1524 511.5 91.4286H512.5ZM511.5 97.1429C511.5 97.419 511.724 97.6429 512 97.6429C512.276 97.6429 512.5 97.419 512.5 97.1429H511.5ZM512.5 102.857C512.5 102.581 512.276 102.357 512 102.357C511.724 102.357 511.5 102.581 511.5 102.857H512.5ZM511.5 108.571C511.5 108.848 511.724 109.071 512 109.071C512.276 109.071 512.5 108.848 512.5 108.571H511.5ZM512.5 114.286C512.5 114.01 512.276 113.786 512 113.786C511.724 113.786 511.5 114.01 511.5 114.286H512.5ZM511.5 120C511.5 120.276 511.724 120.5 512 120.5C512.276 120.5 512.5 120.276 512.5 120H511.5ZM512.5 125.714C512.5 125.438 512.276 125.214 512 125.214C511.724 125.214 511.5 125.438 511.5 125.714H512.5ZM511.5 131.429C511.5 131.705 511.724 131.929 512 131.929C512.276 131.929 512.5 131.705 512.5 131.429H511.5ZM512.5 137.143C512.5 136.867 512.276 136.643 512 136.643C511.724 136.643 511.5 136.867 511.5 137.143H512.5ZM511.5 60V62.8571H512.5V60H511.5ZM511.5 68.5714V74.2857H512.5V68.5714H511.5ZM511.5 80V85.7143H512.5V80H511.5ZM511.5 91.4286V97.1429H512.5V91.4286H511.5ZM511.5 102.857V108.571H512.5V102.857H511.5ZM511.5 114.286V120H512.5V114.286H511.5ZM511.5 125.714V131.429H512.5V125.714H511.5ZM511.5 137.143V140H512.5V137.143H511.5Z" fill="white"/>
<defs>
<clipPath id="clip0_571_982">
<rect width="32" height="44" fill="white" transform="translate(496)"/>
</clipPath>
</defs>
</svg>
