<?xml version="1.0" standalone="no"?>
<!DOCTYPE svg PUBLIC "-//W3C//DTD SVG 20010904//EN"
 "http://www.w3.org/TR/2001/REC-SVG-20010904/DTD/svg10.dtd">
<svg version="1.0" xmlns="http://www.w3.org/2000/svg"
 width="1920.000000pt" height="1280.000000pt" viewBox="0 0 1920.000000 1280.000000"
 preserveAspectRatio="xMidYMid meet">

<g transform="translate(0.000000,1280.000000) scale(0.100000,-0.100000)"
fill="#000000" stroke="none">
<path d="M0 12471 l0 -328 52 8 c29 5 61 6 72 3 10 -4 22 0 27 7 7 11 9 11 9
1 0 -10 19 -13 73 -12 105 1 319 -15 342 -26 11 -5 21 -15 23 -23 2 -10 -5
-12 -32 -7 -20 4 -37 2 -41 -4 -3 -5 -15 -10 -26 -10 -10 0 -19 -4 -19 -9 0
-5 -15 -11 -32 -14 -18 -4 -55 -10 -83 -15 -27 -4 -59 -13 -70 -19 -24 -13
-236 -13 -228 0 3 5 25 7 49 4 24 -2 44 -1 44 4 0 5 -10 9 -23 9 -13 0 -33 9
-45 20 -12 12 -23 16 -27 10 -3 -6 -19 -10 -36 -10 l-29 0 0 -2416 0 -2417 68
7 c83 8 250 36 487 80 231 44 261 49 255 43 -3 -3 -66 -21 -140 -41 -74 -19
-160 -43 -190 -52 -30 -9 -80 -22 -110 -29 -30 -8 -89 -23 -130 -36 -41 -12
-111 -27 -155 -33 l-80 -11 -3 -141 -3 -140 153 -18 c84 -10 266 -30 403 -46
138 -15 235 -28 218 -29 -52 -2 -350 27 -566 54 -109 14 -200 25 -202 25 -3 0
-5 -71 -5 -158 l0 -158 77 -32 c95 -38 457 -173 531 -197 29 -9 52 -19 49 -21
-9 -10 -444 145 -619 220 l-38 16 0 -128 0 -129 278 -92 c275 -91 311 -105
301 -115 -3 -3 -46 8 -95 25 -49 16 -170 55 -269 85 -99 30 -188 57 -198 60
-16 5 -17 -9 -17 -208 l0 -214 103 -33 c237 -77 585 -206 580 -215 -3 -5 -1
-6 5 -2 12 7 255 -81 260 -95 2 -5 8 -7 12 -4 12 8 406 -152 680 -274 160 -72
588 -292 761 -391 527 -303 969 -618 1381 -987 360 -323 592 -629 652 -859 24
-93 21 -223 -6 -287 -64 -152 -201 -259 -438 -345 -204 -74 -386 -108 -755
-144 -138 -13 -2895 -18 -2895 -5 0 4 69 8 153 8 83 0 422 2 752 5 1879 12
1805 10 2170 55 561 68 879 222 949 459 90 304 -195 727 -869 1291 -677 565
-1601 1089 -2632 1491 -35 14 -60 28 -55 33 4 5 2 5 -5 1 -7 -3 -52 10 -100
29 -48 20 -95 37 -104 39 -8 2 -134 43 -280 91 -145 47 -276 90 -291 95 l-28
9 0 -172 0 -172 207 -74 c1093 -387 1677 -656 2207 -1018 542 -369 906 -735
998 -1002 18 -51 23 -87 23 -161 -1 -135 -35 -210 -150 -323 -16 -16 -25 -27
-20 -24 6 3 11 -3 11 -13 0 -18 -2 -18 -18 -3 -16 14 -18 14 -24 0 -3 -9 -14
-19 -25 -22 -11 -4 -16 -11 -13 -17 4 -6 3 -8 -3 -5 -11 7 -85 -27 -78 -35 3
-3 -1 -5 -9 -5 -7 0 -35 -10 -60 -22 -175 -82 -535 -157 -941 -196 -333 -32
-490 -37 -1200 -40 l-730 -2 670 7 c369 4 713 10 765 14 52 4 163 11 245 17
83 5 220 19 305 30 696 88 1070 237 1186 475 113 231 -19 512 -409 873 -235
216 -513 420 -857 629 -323 196 -963 487 -1565 714 -136 51 -501 178 -511 178
-2 0 -4 -84 -4 -188 l0 -187 78 -29 c819 -306 1512 -644 2012 -980 186 -125
307 -224 427 -348 180 -189 240 -349 178 -479 -30 -63 -38 -74 -77 -106 -21
-18 -39 -36 -39 -40 -1 -4 -5 -7 -11 -5 -5 1 -7 -2 -4 -7 7 -11 56 -11 56 1 0
5 -5 6 -12 2 -6 -4 -8 -3 -5 3 4 6 23 13 44 16 21 3 48 8 60 11 20 4 21 2 16
-32 -3 -20 -19 -55 -34 -78 -49 -72 -205 -127 -311 -109 -24 4 -38 12 -38 22
0 9 6 13 15 9 8 -3 15 -1 15 3 0 5 -12 14 -27 19 -16 6 -21 11 -13 11 8 1 26
-5 40 -12 22 -12 28 -11 40 2 13 13 12 14 -3 8 -26 -10 -20 8 7 23 43 23 41
43 -2 21 -21 -11 -65 -27 -97 -36 -33 -9 -82 -22 -110 -29 -173 -48 -442 -75
-770 -80 l-280 -4 225 8 c402 13 733 61 942 136 200 72 328 178 358 299 61
243 -292 597 -993 996 -392 224 -870 449 -1417 667 -124 49 -235 93 -248 97
l-22 6 0 -203 0 -203 73 -29 c39 -16 149 -64 242 -107 829 -375 1399 -729
1534 -954 34 -56 39 -82 32 -185 0 -14 2 -47 5 -75 7 -65 -6 -98 -49 -118 -46
-22 -125 -23 -134 -1 -7 18 16 66 29 58 4 -3 8 0 8 7 0 8 5 7 17 -2 9 -8 14
-9 10 -2 -4 6 -1 13 5 15 7 3 1 7 -14 10 -15 3 -25 1 -22 -3 3 -5 -5 -8 -18
-7 -13 0 -66 -8 -118 -20 -199 -43 -267 -47 -830 -45 -294 1 -588 5 -652 8
l-118 7 0 -340 c0 -263 3 -341 13 -345 9 -4 9 -6 0 -6 -10 -1 -13 -256 -13
-1241 l0 -1240 2623 1 c1442 0 2613 4 2602 9 -11 4 -110 42 -220 83 -315 118
-681 262 -1107 435 -541 220 -765 302 -1031 378 -392 111 -766 176 -1102 191
-77 3 -147 9 -155 14 -34 19 291 2 510 -27 551 -72 1094 -235 1970 -592 335
-136 628 -250 1008 -393 l263 -99 1067 1 1067 1 -80 19 c-610 147 -1146 322
-2195 716 -856 322 -1120 417 -1515 548 -858 286 -1600 478 -2135 554 -80 11
-176 25 -215 31 -38 6 -95 11 -125 10 -31 0 -50 3 -43 8 7 4 -144 8 -335 9
-251 1 -349 -2 -354 -11 -6 -8 -11 -7 -18 4 -7 11 -10 11 -10 2 0 -7 -5 -10
-11 -7 -32 20 17 25 319 32 288 6 433 -2 732 -43 353 -48 690 -116 1085 -219
72 -18 202 -52 290 -75 490 -127 1186 -355 1840 -603 1008 -383 1151 -435
1495 -553 479 -163 971 -303 1349 -384 l183 -40 2402 0 2401 0 160 30 c88 17
430 84 760 150 1141 227 1422 273 2000 331 294 30 901 37 1160 14 216 -19 441
-53 599 -90 233 -55 706 -192 706 -205 0 -4 -10 -12 -23 -17 -19 -9 -49 -3
-153 28 -617 188 -931 242 -1474 256 -602 14 -1303 -65 -2310 -262 -309 -61
-1125 -225 -1135 -229 -5 -3 1422 -5 3173 -5 l3182 -1 0 513 0 513 -57 18
c-155 47 -313 120 -403 184 -19 14 -59 50 -87 80 -50 52 -67 56 -42 11 6 -11
8 -25 6 -32 -3 -7 -8 -4 -12 8 -5 11 -13 26 -19 34 -12 16 -14 28 -22 189 -10
184 14 263 192 627 113 231 130 290 105 352 -6 16 -13 44 -15 63 -5 36 -20 94
-55 215 -12 38 -21 75 -21 82 0 40 70 -25 107 -99 20 -39 27 -47 38 -38 8 6
16 26 20 43 13 71 28 117 38 117 16 0 2 118 -21 180 -11 30 -36 97 -55 147
-45 122 -99 209 -200 324 -189 215 -503 432 -942 652 -334 167 -614 289 -1240
542 -209 84 -441 179 -515 210 -340 144 -458 227 -405 285 23 25 66 38 330 95
897 195 1984 481 2615 688 74 25 138 42 142 38 4 -4 -2 -7 -14 -8 -12 -1 -24
-7 -28 -12 -9 -15 -443 -157 -733 -241 -720 -206 -1389 -370 -2042 -500 -181
-36 -245 -59 -245 -88 0 -65 192 -161 830 -415 670 -267 851 -343 1125 -475
431 -208 718 -380 951 -569 112 -90 246 -228 301 -308 42 -62 113 -195 113
-212 0 -5 15 -47 34 -94 19 -47 42 -123 52 -170 15 -73 16 -98 6 -189 -20
-175 -64 -299 -232 -645 -132 -272 -163 -353 -181 -480 -11 -76 4 -172 36
-236 34 -66 123 -152 215 -205 68 -40 242 -114 305 -130 l25 -6 0 1189 0 1188
-51 35 c-28 19 -63 43 -78 52 -14 10 -33 22 -41 28 -53 37 -134 87 -237 147
-165 97 -187 110 -283 161 -47 25 -103 57 -125 71 -22 14 -58 35 -80 47 -111
61 -190 109 -331 202 -35 23 -69 42 -74 42 -4 0 -15 6 -23 14 -8 8 -30 25 -48
38 -61 42 -143 105 -177 137 -18 17 -37 31 -43 31 -5 0 -9 7 -9 15 0 9 -8 18
-17 22 -24 8 -48 33 -67 71 -8 16 -27 39 -41 50 -14 12 -26 23 -26 26 1 3 -10
31 -24 62 -29 66 -29 67 -11 102 10 20 23 28 44 30 31 2 51 -12 32 -23 -13 -8
-13 -45 0 -45 6 0 10 -7 10 -15 0 -8 4 -15 10 -15 5 0 9 -3 9 -8 -5 -28 3 -34
36 -30 24 3 35 0 35 -9 0 -8 7 -10 18 -6 15 6 15 5 3 -10 -20 -25 -1 -20 23 6
12 12 20 30 18 39 -4 20 44 22 52 1 4 -9 13 -12 27 -8 15 5 25 1 35 -14 9 -12
24 -21 35 -21 26 0 24 16 -3 25 -21 7 -19 8 11 12 19 3 37 0 40 -5 4 -7 12 -6
23 2 16 11 14 14 -18 29 -19 10 -40 14 -46 11 -6 -4 -8 -2 -5 3 4 6 0 14 -9
17 -8 3 -13 2 -10 -3 3 -4 -7 -6 -22 -3 -23 4 -24 6 -7 12 17 6 17 7 2 13 -9
3 -25 4 -34 1 -14 -5 -15 -4 -4 4 11 8 9 11 -10 17 -13 4 -35 16 -49 25 -14 9
-64 42 -111 73 -276 179 -228 310 170 462 119 45 239 81 581 174 308 83 533
153 659 203 40 16 75 27 78 24 15 -14 -439 -164 -787 -260 -552 -151 -779
-249 -836 -358 -24 -46 -9 -84 55 -148 75 -75 168 -129 546 -318 341 -170 441
-216 454 -207 5 2 14 -2 21 -10 7 -8 18 -15 24 -15 6 0 4 5 -4 10 -13 8 -12
10 3 10 9 0 26 -9 37 -20 11 -11 29 -20 40 -20 11 0 20 -5 20 -10 0 -6 6 -10
13 -9 18 3 48 -12 42 -21 -5 -7 83 -50 104 -50 5 0 11 -4 13 -8 2 -4 77 -45
167 -91 91 -45 184 -94 208 -108 l43 -25 0 210 c0 170 -3 213 -14 225 -13 12
-13 17 0 36 12 16 12 21 2 21 -11 0 -11 2 0 9 9 5 -7 18 -50 41 -35 19 -65 33
-67 31 -2 -1 -7 2 -10 7 -3 5 -115 64 -247 130 -263 133 -338 185 -350 246
-12 64 49 142 151 194 22 11 151 54 286 96 136 41 258 80 273 86 l26 10 0
1042 0 1043 -36 -65 c-87 -155 -207 -362 -223 -382 -14 -16 -20 -18 -26 -8 -5
8 -4 11 2 7 6 -4 15 5 21 18 7 15 8 26 2 30 -6 4 -10 -3 -10 -14 0 -12 -4 -20
-9 -18 -5 1 -17 -7 -26 -18 -16 -19 -16 -19 -2 6 8 14 40 70 70 125 30 54 95
174 146 265 l91 166 0 2582 0 2581 -9600 0 -9600 0 0 -329z m10023 273 c42 -4
75 -10 72 -14 -2 -3 22 -19 53 -34 31 -15 75 -36 97 -47 l40 -20 -100 6 c-127
8 -125 8 -157 0 -50 -13 -95 3 -143 51 -25 25 -45 50 -45 55 0 11 75 12 183 3z
m6052 -41 c-22 -16 -35 -17 -35 -3 0 6 9 10 21 10 13 0 18 4 13 12 -5 7 -3 8
6 3 10 -6 9 -11 -5 -22z m333 11 c47 -20 28 -28 -46 -19 -52 6 -55 8 -37 21
24 18 37 18 83 -2z m-6522 -141 c-3 -3 -13 -2 -23 2 -17 7 -17 8 2 15 19 7 34
-5 21 -17z m-4086 -23 c12 -7 10 -11 -10 -18 -27 -11 -47 -1 -36 17 9 13 26
14 46 1z m-165 -20 c-3 -5 -10 -10 -16 -10 -5 0 -9 5 -9 10 0 6 7 10 16 10 8
0 12 -4 9 -10z m11332 -70 c178 -24 348 -57 533 -105 140 -37 284 -85 276 -92
-2 -3 -98 -6 -213 -8 -198 -3 -283 -13 -283 -35 0 -6 -9 -10 -20 -10 -20 0
-20 -1 4 -25 13 -13 36 -27 50 -31 14 -3 26 -12 28 -20 3 -16 133 -67 266
-105 39 -12 42 -14 22 -21 -16 -6 -30 -4 -46 7 -13 8 -33 15 -46 14 -13 0 -48
3 -78 6 -30 3 -113 8 -184 10 -71 3 -134 9 -140 14 -6 5 -24 7 -41 6 -31 -2
-100 31 -233 112 l-73 45 26 22 26 23 -28 22 c-28 22 -48 34 -110 67 -18 10
-33 23 -33 30 0 7 18 31 40 53 49 49 49 49 257 21z m-359 -37 c3 -62 -8 -80
-35 -62 -27 16 -52 60 -45 79 7 21 23 30 53 30 23 0 26 -4 27 -47z m1507 18
l40 -18 -40 -8 c-22 -5 -43 -9 -47 -9 -3 -1 -9 -4 -12 -7 -10 -10 -79 5 -83
18 -2 6 10 14 27 18 16 4 28 11 24 16 -9 15 48 9 91 -10z m-1735 -20 c0 -12
-21 -19 -38 -13 -11 4 -11 6 0 13 17 11 38 11 38 0z m405 -139 c-3 -3 -11 0
-18 7 -9 10 -8 11 6 5 10 -3 15 -9 12 -12z m-16110 -182 c18 -8 17 -9 -7 -9
-16 -1 -28 4 -28 9 0 12 8 12 35 0z m17032 -96 c-3 -3 -12 -4 -19 -1 -8 3 -5
6 6 6 11 1 17 -2 13 -5z m50 -10 c-3 -3 -12 -4 -19 -1 -8 3 -5 6 6 6 11 1 17
-2 13 -5z m-7437 -34 c52 -5 136 -13 187 -16 51 -4 90 -10 88 -14 -5 -8 -341
-26 -440 -23 -33 1 -76 8 -95 16 -19 8 -56 18 -82 21 -25 4 -51 12 -56 19 -12
15 247 13 398 -3z m5735 10 c4 -6 10 -8 15 -5 10 6 21 -21 14 -38 -3 -8 -11
-14 -19 -14 -8 0 -13 3 -10 5 3 3 -8 11 -25 18 -16 7 -30 18 -30 24 0 6 5 8
10 5 6 -3 10 -1 10 4 0 14 27 14 35 1z m-15218 -36 c-3 -3 -12 -4 -19 -1 -8 3
-5 6 6 6 11 1 17 -2 13 -5z m70 -10 c-3 -3 -12 -4 -19 -1 -8 3 -5 6 6 6 11 1
17 -2 13 -5z m119 -23 c-18 -7 -66 -3 -66 5 0 2 19 4 43 3 30 0 36 -3 23 -8z
m9814 -91 c69 -7 163 -17 210 -24 81 -12 67 -13 -290 -22 -206 -5 -430 -9
-497 -9 -66 0 -116 -3 -110 -8 7 -4 -8 -4 -33 0 -25 4 -52 6 -60 5 -8 -1 -139
-4 -290 -6 -151 -3 -360 -8 -465 -11 -104 -3 -186 -3 -182 1 4 4 42 13 85 20
42 7 119 20 170 29 124 20 191 25 486 30 136 2 251 7 255 11 9 9 571 -3 721
-16z m-997 -77 c-7 -2 -19 -2 -25 0 -7 3 -2 5 12 5 14 0 19 -2 13 -5z m1257
-79 c298 -19 511 -43 546 -62 11 -5 44 -10 74 -11 30 -1 57 -6 58 -12 2 -5 16
-9 30 -9 24 -1 25 -2 9 -11 -13 -7 -67 -7 -180 0 -549 36 -609 38 -1616 46
-404 3 -736 7 -738 9 -3 3 127 28 217 42 148 22 1296 28 1600 8z m2635 -88
c55 -14 89 -25 75 -26 -114 -6 -162 -6 -145 1 11 4 -8 5 -42 2 -70 -7 -81 4
-30 30 40 20 25 21 142 -7z m169 -34 c3 -5 3 -18 -1 -30 -5 -20 -7 -20 -28 -6
-37 24 -39 44 -5 44 16 0 31 -4 34 -8z m-3519 -17 c143 -8 514 -19 825 -25
314 -6 632 -17 715 -25 243 -22 363 -35 480 -50 141 -18 349 -37 447 -41 42
-1 118 -7 169 -14 50 -6 94 -8 97 -5 3 3 -2 5 -11 5 -9 0 -30 8 -48 19 l-31
19 28 25 c19 18 45 28 83 34 125 17 441 0 718 -39 67 -10 80 -14 71 -25 -8
-10 -14 -11 -22 -3 -12 12 -29 13 -22 1 7 -11 -78 -24 -103 -16 -12 4 -24 -1
-33 -12 -7 -10 -22 -20 -33 -21 -11 -2 -21 -8 -23 -12 -2 -5 -10 -6 -18 -3 -8
3 -14 0 -14 -6 0 -21 35 -46 60 -44 23 2 23 2 5 -6 -11 -5 -16 -10 -11 -10 6
-1 1 -8 -10 -16 -19 -14 -19 -14 3 -15 12 0 25 -4 28 -10 9 -14 10 -14 -185
30 -189 43 -203 45 -180 29 13 -9 12 -10 -3 -5 -60 19 -603 25 -764 7 -18 -2
-16 -31 2 -31 8 0 15 7 15 15 0 8 5 15 10 15 6 0 10 -4 10 -10 0 -12 54 -40
78 -40 11 0 25 -7 32 -15 7 -8 28 -17 48 -21 19 -4 47 -13 61 -20 14 -8 34
-14 44 -14 9 0 25 -4 35 -9 54 -26 90 -41 115 -47 18 -4 25 -10 19 -16 -9 -9
-134 18 -187 41 -34 14 -238 51 -348 62 -66 6 -282 8 -593 5 -466 -6 -615 -13
-569 -28 27 -9 289 -26 510 -33 374 -12 646 -33 680 -53 19 -11 -52 -23 -174
-29 -80 -4 -122 -3 -118 4 4 6 -23 9 -71 9 -42 -1 -158 3 -257 8 -99 5 -214 9
-255 11 -71 2 -265 20 -320 30 -14 3 -47 7 -75 11 -67 7 -85 11 -195 34 -52
12 -144 30 -203 40 -60 11 -113 22 -118 25 -5 4 -28 9 -51 14 -27 5 25 7 137
7 99 -1 252 2 340 6 88 4 284 10 435 13 393 8 461 13 467 36 3 11 10 19 17 19
6 0 3 5 -7 11 -10 6 -33 8 -51 5 -18 -3 -53 0 -79 8 -25 7 -48 11 -51 9 -7 -7
-170 19 -176 28 -6 8 -197 18 -440 23 -91 2 -250 7 -355 11 -104 3 -300 8
-435 10 -235 4 -389 10 -475 20 -98 11 -328 25 -413 25 -53 0 -91 4 -88 9 7
11 121 31 231 41 136 12 329 11 600 -5z m-5737 -35 c-14 -10 -37 -21 -53 -24
-15 -3 -39 -13 -54 -23 -39 -26 -101 -53 -122 -53 -10 0 -19 -4 -19 -10 0 -5
-7 -10 -16 -10 -9 0 -25 -9 -35 -21 -10 -11 -22 -18 -28 -15 -5 3 -20 2 -33
-3 -12 -5 -52 -12 -88 -15 l-65 -7 30 20 c17 12 38 21 48 21 10 0 16 4 13 9
-12 19 196 99 339 131 106 23 112 23 83 0z m797 1 c-3 -6 -14 -11 -23 -11 -9
0 -29 -6 -43 -14 -14 -7 -39 -16 -55 -20 -16 -4 -65 -18 -109 -32 -44 -15 -91
-28 -104 -31 -14 -2 -29 -7 -34 -10 -8 -5 -186 -69 -347 -124 -30 -11 -62 -22
-70 -26 -8 -3 -21 -7 -28 -9 -7 -1 -23 -9 -35 -17 -12 -8 -37 -18 -55 -22 -18
-4 -36 -13 -39 -21 -3 -8 -17 -14 -32 -14 -41 0 -75 -12 -61 -20 7 -5 -10 -11
-40 -15 -29 -4 -47 -10 -41 -14 6 -4 -3 -8 -21 -8 -18 -1 -46 -3 -63 -6 -115
-17 -201 -27 -273 -31 -67 -3 -81 -2 -72 9 6 7 27 16 48 20 20 4 43 11 50 17
6 6 12 8 12 4 0 -4 43 17 95 45 52 28 95 47 95 43 0 -4 8 -1 18 7 18 16 66 33
122 44 19 4 40 11 45 15 19 16 325 92 615 154 320 68 368 79 405 90 44 13 50
13 40 -3z m5110 -211 c4 -6 -5 -10 -19 -10 -14 0 -26 5 -26 10 0 6 9 10 19 10
11 0 23 -4 26 -10z m108 -17 c-13 -2 -35 -2 -50 0 -16 2 -5 4 22 4 28 0 40 -2
28 -4z m3094 -9 c-3 -3 -12 -4 -19 -1 -8 3 -5 6 6 6 11 1 17 -2 13 -5z m-8552
-75 c-16 -5 -64 -17 -105 -27 -41 -11 -100 -27 -130 -36 -30 -9 -68 -19 -85
-22 -16 -3 -39 -11 -50 -18 -11 -7 -37 -16 -57 -20 -21 -4 -37 -12 -35 -19 1
-7 -5 -12 -13 -12 -8 0 -39 -12 -69 -27 -29 -16 -59 -28 -66 -28 -17 0 -66
-26 -74 -39 -4 -5 -22 -13 -41 -16 -19 -3 -37 -9 -40 -13 -3 -4 -14 -9 -25
-10 -11 -2 -27 -8 -35 -13 -12 -7 -12 -8 3 -9 10 0 17 -6 15 -12 -6 -16 -108
-46 -163 -48 -75 -3 -85 -18 -12 -18 72 0 109 -11 41 -13 -32 0 -35 -2 -19 -9
14 -7 -3 -9 -53 -7 -39 1 -72 -1 -72 -4 0 -9 -80 -19 -221 -26 -135 -6 -203 1
-196 20 4 13 80 45 137 57 19 5 46 11 60 14 96 21 128 31 152 46 15 9 25 20
21 23 -3 4 0 7 9 7 8 0 34 14 57 31 44 32 187 102 231 114 14 3 34 10 45 15
33 13 224 49 321 60 78 8 209 27 419 60 67 10 87 10 50 -1z m7970 -110 c17
-16 17 -19 3 -19 -9 0 -19 4 -23 9 -3 5 -19 12 -35 16 -17 4 -30 10 -30 15 0
15 64 -1 85 -21z m68 -19 c8 0 8 -3 1 -10 -12 -12 -44 -3 -44 12 0 6 7 7 16 4
9 -3 21 -6 27 -6z m-12545 -78 c13 -4 -83 -6 -213 -6 -130 1 -239 5 -242 8 -8
8 426 6 455 -2z m-560 -9 c-21 -2 -55 -2 -75 0 -21 2 -4 4 37 4 41 0 58 -2 38
-4z m997 -8 c28 -3 97 -12 155 -20 58 -8 193 -22 300 -31 222 -18 441 -47 550
-74 l75 -19 -80 0 c-84 0 -329 22 -355 33 -8 3 -64 10 -125 16 -60 5 -146 14
-190 20 -44 6 -114 15 -155 20 -116 16 -143 19 -315 36 -249 24 -277 34 -80
29 94 -2 193 -7 220 -10z m9915 -25 c123 -13 182 -35 73 -27 -34 2 -64 1 -65
-2 -2 -4 -25 -5 -53 -2 l-50 5 45 7 c25 4 -10 5 -77 3 -68 -1 -125 1 -128 5
-2 5 -45 8 -95 7 -68 -1 -90 2 -90 12 0 16 262 11 440 -8z m580 -20 c210 -19
445 -56 590 -91 25 -6 17 -7 -30 -3 -115 10 -185 19 -195 26 -6 3 -44 9 -85
13 -41 3 -154 17 -250 30 -96 13 -215 27 -265 31 -61 5 -80 10 -60 14 17 3 62
2 100 -2 39 -4 126 -12 195 -18z m-400 -10 c0 -5 -6 -10 -14 -10 -8 0 -18 5
-21 10 -3 6 3 10 14 10 12 0 21 -4 21 -10z m-5775 -10 c-11 -5 -27 -9 -35 -9
-13 -1 -13 0 0 9 8 5 24 9 35 9 l20 0 -20 -9z m5849 1 c4 -5 -3 -7 -14 -4 -23
6 -26 13 -6 13 8 0 17 -4 20 -9z m-6174 -51 c12 -8 12 -10 -5 -10 -11 0 -58
-20 -105 -45 -47 -25 -93 -48 -102 -51 -10 -4 -18 -10 -18 -15 0 -5 -8 -9 -18
-9 -27 0 -62 -28 -56 -45 4 -9 0 -15 -10 -15 -12 0 -16 -10 -16 -39 0 -30 -4
-40 -17 -43 -15 -3 -14 -5 5 -10 12 -3 20 -2 16 3 -7 11 227 11 241 -1 5 -4
24 -10 40 -13 26 -3 24 -4 -10 -6 -25 -1 -35 -4 -27 -9 8 -6 0 -8 -20 -8 -47
0 -344 -13 -705 -30 -165 -8 -279 2 -262 22 6 8 15 11 20 8 5 -3 9 -2 8 3 -5
28 6 45 47 72 25 17 49 31 54 31 4 0 25 9 47 19 55 28 97 45 188 76 44 15 89
31 100 35 34 14 253 51 421 70 87 10 161 18 164 19 3 0 12 -4 20 -9z m7253 -2
c21 1 48 -3 59 -9 11 -6 33 -12 48 -14 31 -4 84 -34 76 -43 -10 -9 -240 50
-256 65 -13 13 -12 14 10 8 14 -5 42 -7 63 -7z m3996 -32 c-3 -3 -11 5 -18 17
-13 21 -12 21 5 5 10 -10 16 -20 13 -22z m-9734 4 c4 -6 -1 -7 -11 -3 -11 4
-15 2 -11 -4 7 -11 -13 -23 -39 -23 -26 0 -14 29 14 33 15 2 30 5 34 6 4 0 10
-3 13 -9z m9135 -15 c13 -14 21 -25 18 -25 -2 0 -15 11 -28 25 -13 14 -21 25
-18 25 2 0 15 -11 28 -25z m-9687 4 c-8 -8 -16 -8 -30 0 -16 9 -14 10 12 11
21 0 26 -3 18 -11z m8572 -7 c-3 -3 -11 0 -18 7 -9 10 -8 11 6 5 10 -3 15 -9
12 -12z m-8175 -2 c20 -12 9 -21 -18 -13 -12 3 -19 9 -16 14 7 11 15 11 34 -1z
m1100 -4 c0 -2 -19 -19 -42 -36 l-43 -32 40 36 c40 36 45 39 45 32z m7168 -37
c-2 -40 -2 -41 -19 -21 -9 12 -20 18 -24 14 -5 -4 -5 1 -2 11 4 10 7 23 7 28
0 5 9 9 20 9 18 0 20 -6 18 -41z m-1075 24 c-7 -2 -19 -2 -25 0 -7 3 -2 5 12
5 14 0 19 -2 13 -5z m2748 -20 c13 -16 12 -17 -3 -4 -17 13 -22 21 -14 21 2 0
10 -8 17 -17z m-538 -93 c71 -88 89 -113 66 -90 -30 29 -163 195 -145 180 10
-8 46 -48 79 -90z m-2086 84 c-3 -3 -12 -4 -19 -1 -8 3 -5 6 6 6 11 1 17 -2
13 -5z m58 -14 c13 -6 15 -9 5 -9 -8 0 -22 4 -30 9 -18 12 -2 12 25 0z m3118
-3 c-4 -6 0 -8 10 -4 12 4 14 2 10 -10 -4 -11 -2 -14 5 -9 7 4 12 2 12 -4 0
-6 4 -9 9 -6 9 6 26 -22 22 -37 -1 -5 3 -6 8 -3 13 8 34 -21 25 -35 -4 -7 -3
-9 3 -6 13 8 57 -39 48 -52 -3 -6 0 -11 8 -11 8 0 51 -44 95 -99 79 -96 138
-182 115 -168 -6 4 -13 3 -15 -2 -1 -6 -34 31 -73 80 -38 50 -107 138 -153
195 -46 59 -80 110 -76 116 4 6 3 8 -3 5 -5 -3 -24 9 -42 27 -21 21 -27 33
-17 33 8 0 12 -5 9 -10z m1676 -36 c23 -27 38 -52 33 -55 -5 -3 -25 20 -45 50
-20 29 -35 54 -33 54 2 0 23 -22 45 -49z m-11159 26 c0 -2 -12 -14 -27 -28
l-28 -24 24 28 c23 25 31 32 31 24z m5390 -49 c140 -48 394 -172 421 -206 10
-14 19 -22 19 -18 0 12 42 -21 102 -81 69 -67 98 -123 98 -186 0 -40 -3 -47
-20 -47 -14 0 -20 7 -20 23 0 33 -29 116 -55 157 -35 54 -132 141 -212 189
-89 53 -256 127 -382 170 -101 34 -148 56 -96 45 17 -4 82 -25 145 -46z m1089
-18 c38 -53 76 -148 95 -241 13 -65 14 -82 1 -136 -15 -66 -47 -128 -70 -137
-20 -7 -19 0 4 38 32 53 46 152 33 237 -16 105 -74 241 -121 280 l-36 31 33
-16 c18 -9 45 -35 61 -56z m2494 45 c4 3 5 2 3 -1 -3 -3 6 -16 19 -29 14 -12
22 -25 18 -28 -3 -4 -1 -7 5 -7 6 0 16 -9 22 -20 21 -39 -8 -19 -47 33 -39 52
-68 98 -40 65 8 -10 17 -16 20 -13z m-9043 -38 c0 -2 -12 -14 -27 -28 l-28
-24 24 28 c23 25 31 32 31 24z m3645 -22 c143 -8 294 -19 335 -25 200 -25 384
-51 391 -55 4 -3 49 -7 101 -10 51 -3 116 -8 143 -11 28 -4 82 -8 120 -10 130
-5 459 -71 475 -95 3 -4 14 -9 25 -12 36 -8 -39 2 -125 17 -96 17 -301 34
-342 28 -29 -4 -38 -18 -15 -24 6 -2 53 -24 103 -51 96 -50 159 -98 194 -148
l22 -29 -26 11 c-14 7 -26 16 -26 21 0 4 -7 8 -15 8 -8 0 -15 4 -15 9 0 15
-103 89 -176 125 -100 49 -222 79 -378 91 -38 3 -102 12 -142 21 -41 8 -102
19 -136 24 -167 25 -208 32 -273 45 -38 8 -106 18 -150 24 -85 10 -239 35
-291 46 -18 4 -34 3 -38 -3 -3 -5 28 -15 72 -22 112 -19 121 -30 17 -23 -49 3
-117 7 -150 8 -33 2 -98 6 -145 10 -47 3 -136 6 -197 7 -62 0 -113 4 -113 9 0
10 -7 10 135 19 185 11 348 10 620 -5z m6974 -24 c34 -43 86 -135 71 -126 -6
3 -7 0 -4 -9 3 -9 9 -14 13 -11 7 4 41 -59 87 -162 16 -37 20 -54 12 -59 -6
-4 -8 -3 -4 4 3 6 -3 14 -15 17 -15 5 -36 39 -71 111 -27 58 -46 109 -43 114
3 6 2 10 -3 10 -14 0 -67 91 -67 115 0 11 -5 20 -12 20 -6 0 -14 3 -17 6 -3 3
1 6 9 6 9 0 29 -16 44 -36z m-13123 8 c3 -6 15 -9 25 -6 25 7 24 -9 0 -23 -33
-17 -71 -13 -71 9 0 26 33 41 46 20z m3154 7 c0 -2 -8 -10 -17 -17 -16 -13
-17 -12 -4 4 13 16 21 21 21 13z m2175 -6 c-11 -5 -27 -9 -35 -9 -9 0 -8 4 5
9 11 5 27 9 35 9 9 0 8 -4 -5 -9z m4675 -95 c14 -22 36 -71 49 -110 25 -73 41
-101 41 -72 0 28 15 20 33 -18 14 -29 14 -36 2 -48 -8 -8 -25 -12 -38 -10 -21
4 -26 0 -33 -29 -7 -26 -10 -8 -15 82 -6 127 -18 159 -91 260 -38 51 -38 53
-7 20 19 -20 45 -54 59 -75z m3783 91 c4 -10 1 -13 -8 -9 -8 3 -12 9 -9 14 7
12 11 11 17 -5z m-11351 -28 c-7 -7 -12 -8 -12 -2 0 14 12 26 19 19 2 -3 -1
-11 -7 -17z m-1768 -10 c-4 -7 -13 -20 -19 -28 -7 -8 -15 -30 -17 -47 -6 -41
-1 -41 112 -8 100 30 270 65 311 65 32 0 36 -12 19 -55 -6 -15 -7 -38 -4 -51
l7 -26 18 29 c10 15 19 39 19 53 0 20 -2 22 -10 10 -7 -12 -10 -8 -10 15 0 23
3 27 10 15 5 -8 10 -11 10 -7 0 4 6 2 14 -5 21 -20 -6 -83 -59 -142 -54 -59
-235 -330 -298 -446 -72 -134 -60 -125 -173 -121 -54 1 -106 7 -116 12 -9 5
-35 9 -57 9 -22 0 -51 5 -65 11 -23 11 -25 16 -31 141 -9 160 -8 158 -159 165
-115 6 -143 22 -76 42 40 12 150 67 160 79 11 15 91 65 122 76 18 7 53 22 78
33 25 11 63 26 85 33 81 27 10 21 -162 -14 -262 -52 -527 -89 -593 -82 -79 9
-80 9 -80 13 0 6 143 69 200 88 141 46 241 67 440 95 216 30 287 43 297 54 12
12 34 6 27 -6z m2380 -29 c-104 -88 -256 -254 -334 -364 -85 -120 -100 -136
-100 -110 0 47 213 304 341 411 80 68 129 104 138 104 2 0 -18 -19 -45 -41z
m-725 -66 c-52 -54 -126 -134 -164 -178 -74 -85 -113 -125 -121 -125 -3 0 14
24 37 53 48 58 329 347 338 347 3 0 -37 -44 -90 -97z m-629 73 c0 -2 -17 -21
-37 -43 -21 -21 -74 -78 -117 -126 -44 -48 -81 -85 -84 -83 -7 8 34 56 136
159 92 93 102 102 102 93z m10045 -107 c63 -85 109 -169 86 -154 -6 3 -11 10
-11 15 0 4 -12 21 -27 38 -16 16 -56 71 -91 121 -80 118 -47 102 43 -20z
m-3280 91 c19 -8 19 -9 -2 -9 -12 -1 -25 4 -28 9 -7 12 2 12 30 0z m110 -30
c17 -5 50 -12 74 -15 76 -11 215 -55 236 -75 33 -34 7 -43 -61 -21 -124 40
-319 112 -328 121 -10 10 30 5 79 -10z m2584 -80 c32 -41 67 -91 80 -110 22
-33 21 -33 -12 5 -52 60 -163 212 -142 195 10 -8 43 -48 74 -90z m2701 74 c0
-8 4 -14 9 -14 12 0 94 -160 86 -168 -4 -4 -13 2 -22 13 -27 36 -87 160 -84
174 1 8 -2 10 -10 5 -8 -4 -10 -3 -5 5 9 14 26 5 26 -15z m-7540 -59 c74 -9
167 -23 205 -31 97 -20 255 -67 255 -77 0 -4 14 -21 30 -39 36 -37 37 -50 9
-89 -21 -30 -23 -70 -5 -111 11 -25 -28 -45 -112 -58 -98 -16 -103 -13 -96 52
5 50 4 54 -24 75 -34 25 -213 83 -258 83 -17 0 -56 9 -87 19 -30 11 -58 17
-61 14 -3 -4 -6 -1 -6 5 0 7 -9 12 -20 12 -11 0 -28 4 -38 9 -67 34 -113 51
-138 51 -29 -1 -29 -1 11 -22 22 -12 43 -21 48 -20 4 1 7 -2 7 -6 0 -5 18 -17
39 -27 22 -10 42 -23 45 -30 6 -17 188 -95 222 -95 16 0 49 -14 74 -30 25 -16
51 -30 58 -30 6 0 12 -4 12 -10 0 -5 6 -7 14 -4 8 3 16 1 19 -4 10 -15 -124
-95 -206 -124 -43 -16 -104 -31 -135 -34 -54 -5 -202 -59 -202 -73 0 -11 -63
-36 -260 -102 -102 -34 -237 -82 -300 -106 -94 -37 -225 -83 -238 -83 -1 0 5
12 15 27 31 47 117 128 133 124 12 -2 13 0 3 10 -19 20 -15 32 8 26 19 -5 20
-4 4 19 -15 24 -13 64 5 64 4 0 15 17 23 38 13 33 22 40 80 60 35 12 77 22 91
22 15 0 43 7 62 15 20 8 57 17 82 21 26 3 58 7 72 9 14 2 52 7 85 11 33 3 65
10 70 14 6 4 39 6 75 5 60 -2 130 11 130 25 0 3 -17 12 -37 19 -27 10 -38 11
-41 2 -2 -6 -9 -11 -15 -11 -8 0 -7 4 1 12 7 7 12 15 12 18 0 12 -49 30 -65
24 -10 -4 -15 0 -15 10 0 15 -8 18 -65 21 -11 1 -27 5 -34 10 -8 4 -44 9 -80
11 -36 2 -84 6 -106 9 -47 7 -160 13 -300 15 -55 1 -124 6 -153 12 -42 8 -60
7 -85 -6 -33 -15 -134 -117 -164 -164 -17 -27 -81 -105 -160 -195 -77 -88
-117 -208 -73 -220 11 -3 20 -13 20 -22 0 -26 22 -41 55 -38 97 10 129 6 153
-23 23 -26 23 -28 7 -40 -10 -7 -38 -16 -63 -20 -57 -9 -229 13 -256 32 -11 8
-28 14 -38 14 -23 0 -68 50 -68 75 0 17 72 174 127 279 13 24 13 30 2 37 -18
12 88 114 180 174 208 134 413 191 755 210 71 4 141 12 155 16 24 8 23 9 -6 4
-18 -2 -33 1 -35 6 -2 6 -37 13 -78 16 -41 2 -111 7 -155 9 -44 3 -127 8 -185
13 -127 9 -301 5 -358 -7 -24 -6 -39 -6 -36 -1 3 5 -5 13 -18 18 -19 7 -16 9
25 15 26 4 52 4 57 1 6 -4 17 -2 24 4 22 19 169 39 240 34 52 -5 66 -3 66 8 0
10 16 15 53 17 28 2 93 7 142 12 147 14 661 4 815 -15z m-2700 11 c0 -3 -4 -8
-10 -11 -5 -3 -10 -1 -10 4 0 6 5 11 10 11 6 0 10 -2 10 -4z m-36 -27 c-2 -4
-46 -41 -97 -82 -106 -85 -186 -169 -272 -281 -99 -131 -90 -122 -90 -86 0 22
16 50 55 101 102 131 335 339 363 323 6 -4 9 -4 5 1 -4 4 -3 13 2 20 11 13 42
16 34 4z m1703 5 c-3 -3 -12 -4 -19 -1 -8 3 -5 6 6 6 11 1 17 -2 13 -5z
m-1077 -29 c0 -3 -26 -18 -58 -34 -210 -106 -389 -273 -552 -513 -13 -20 -26
-35 -29 -33 -2 3 1 10 6 17 6 7 9 21 8 31 -2 9 1 15 6 11 5 -3 9 2 9 11 0 30
83 139 176 231 105 104 207 177 339 240 97 47 95 46 95 39z m647 -41 c-3 -3
-12 -4 -19 -1 -8 3 -5 6 6 6 11 1 17 -2 13 -5z m40 -10 c-3 -3 -12 -4 -19 -1
-8 3 -5 6 6 6 11 1 17 -2 13 -5z m-5154 -31 c-7 -2 -19 -2 -25 0 -7 3 -2 5 12
5 14 0 19 -2 13 -5z m5954 -9 c-3 -3 -12 -4 -19 -1 -8 3 -5 6 6 6 11 1 17 -2
13 -5z m-1102 -34 c-3 -5 -12 -10 -18 -10 -7 0 -6 4 3 10 19 12 23 12 15 0z
m-109 -57 c-101 -60 -255 -209 -345 -336 -50 -69 -51 -49 -1 25 65 96 127 166
199 222 67 52 198 135 216 135 6 1 -26 -20 -69 -46z m-3279 -24 c21 -11 42
-25 48 -30 5 -5 19 -9 32 -9 16 0 23 -6 23 -19 0 -26 -17 -30 -89 -24 l-61 6
0 48 c0 27 2 49 5 49 2 0 21 -9 42 -21z m5921 -20 c-2 -6 -8 -10 -13 -10 -5 0
-11 4 -13 10 -2 6 4 11 13 11 9 0 15 -5 13 -11z m3691 -319 c15 -70 14 -84 -8
-111 -16 -20 -21 -21 -35 -10 -9 7 -16 10 -16 5 0 -5 -5 -2 -10 6 -13 21 -12
94 1 124 10 22 22 30 51 35 3 0 11 -22 17 -49z m-5649 -294 c0 -3 -4 -8 -10
-11 -5 -3 -10 -1 -10 4 0 6 5 11 10 11 6 0 10 -2 10 -4z m5816 -422 c21 -32
11 -55 -35 -81 -68 -39 -71 -36 -71 72 l0 94 45 -30 c25 -17 53 -42 61 -55z
m-8376 -168 c0 -3 -4 -8 -10 -11 -5 -3 -10 -1 -10 4 0 6 5 11 10 11 6 0 10 -2
10 -4z m-37 -23 c-4 -11 -3 -14 5 -9 18 11 15 4 -14 -35 -21 -27 -25 -29 -19
-10 5 18 4 22 -5 16 -8 -5 -11 -4 -6 3 4 6 13 9 21 5 8 -3 15 0 15 6 0 6 -5
11 -11 11 -8 0 -8 5 1 15 16 20 21 19 13 -2z m585 -18 c-3 -3 -9 2 -12 12 -6
14 -5 15 5 6 7 -7 10 -15 7 -18z m-15 -9 c4 -10 1 -13 -8 -9 -8 3 -12 9 -9 14
7 12 11 11 17 -5z m-40 -82 c-15 -27 -31 -50 -35 -52 -4 -2 -8 -8 -8 -13 0 -5
-33 -55 -72 -111 -105 -146 -444 -485 -474 -474 -8 3 -13 2 -11 -2 5 -18 -202
-172 -232 -172 -5 0 -11 -4 -13 -8 -8 -20 -209 -132 -235 -131 -14 0 -12 2 7
10 13 5 74 41 135 80 60 38 113 69 118 69 4 0 15 7 25 16 9 8 71 56 137 106
123 92 257 208 308 265 16 18 33 30 38 27 5 -3 7 1 4 8 -3 7 12 31 33 53 71
75 252 323 252 346 0 6 5 7 10 4 6 -3 10 1 10 10 0 10 5 13 12 9 8 -5 9 -1 4
12 -5 14 -4 16 4 8 7 -7 3 -24 -17 -60z m-599 -26 c-5 -7 -12 -17 -16 -23 -5
-5 -27 -36 -49 -68 -23 -32 -46 -56 -52 -54 -7 3 -23 -5 -37 -17 l-25 -21 25
30 c14 17 30 35 36 40 5 6 22 28 37 50 15 22 27 34 27 27 0 -7 4 -11 10 -7 5
3 6 13 3 22 -4 10 -2 14 4 10 6 -4 16 0 23 8 15 18 24 20 14 3z m1095 -48
c-31 -51 -50 -69 -28 -27 16 29 49 77 55 77 2 0 -10 -22 -27 -50z m7064 -36
c21 5 66 -14 85 -36 16 -19 -21 -117 -62 -164 -26 -30 -38 -36 -70 -36 -21 0
-43 5 -49 11 -6 6 -26 11 -44 11 -34 0 -79 17 -100 37 -7 6 -13 26 -13 44 0
28 11 43 67 96 49 46 70 60 79 52 9 -7 14 -5 19 11 6 20 7 20 37 -5 20 -17 39
-25 51 -21z m-7109 -36 c-99 -172 -347 -445 -574 -633 -58 -48 -104 -91 -103
-96 2 -4 -3 -6 -11 -3 -7 3 -16 -2 -20 -11 -3 -9 -10 -13 -16 -10 -5 3 -10 -1
-10 -9 0 -9 -7 -16 -15 -16 -7 0 -18 -6 -22 -13 -9 -16 -201 -147 -214 -147
-5 0 -17 -4 -27 -10 -38 -21 -176 -82 -192 -85 -10 -2 -40 -15 -68 -29 -43
-22 -109 -49 -197 -81 -11 -4 82 44 207 108 530 271 901 563 1163 915 86 116
122 159 99 120z m356 -59 c-44 -38 -100 -78 -80 -56 19 20 103 86 110 86 3 0
-11 -13 -30 -30z m-100 -73 c0 -2 -42 -38 -93 -80 -150 -121 -297 -293 -395
-459 -79 -136 -85 -148 -122 -297 l-38 -155 14 -168 15 -168 82 -197 c121
-289 237 -454 494 -703 562 -544 1422 -987 2728 -1407 578 -186 1043 -315
2183 -606 1330 -340 1811 -489 2217 -687 398 -194 554 -410 490 -681 -36 -154
-78 -228 -261 -463 -104 -133 -165 -201 -286 -312 -461 -427 -1114 -774 -1941
-1032 -706 -220 -1565 -380 -2392 -446 -451 -36 -563 -40 -1115 -39 -669 0
-990 17 -1515 80 -1118 135 -1837 406 -1889 714 -3 19 0 135 7 258 50 896
-195 1529 -817 2110 -519 484 -1511 1073 -2571 1525 -143 61 -616 251 -653
262 -13 4 -21 9 -18 12 2 3 62 -16 133 -42 851 -313 1746 -761 2462 -1232 764
-502 1177 -973 1375 -1564 62 -185 93 -335 116 -554 13 -127 13 -508 0 -645
-8 -86 -7 -114 5 -157 82 -282 761 -528 1811 -658 1890 -233 3973 -25 5484
548 803 304 1398 703 1776 1191 68 88 127 172 131 185 3 14 1 48 -4 75 -9 41
-8 54 3 66 7 9 16 43 19 75 6 62 24 135 33 135 3 0 14 -8 25 -17 18 -17 19
-17 29 1 8 15 12 16 20 5 19 -28 0 154 -22 203 -62 139 -192 253 -425 372
-390 197 -945 372 -2200 691 -481 123 -871 224 -1155 302 -890 241 -1610 482
-2187 728 -380 163 -894 436 -1148 609 -364 249 -680 564 -854 851 -27 44 -83
163 -124 265 -75 182 -76 187 -86 313 -16 187 -14 212 24 371 34 139 40 153
117 283 67 114 102 160 202 267 109 116 316 294 316 272z m489 -102 c-23 -28
-91 -74 -100 -68 -5 3 -7 -1 -4 -8 3 -7 -8 -22 -23 -33 -16 -11 -74 -72 -130
-136 -75 -86 -119 -149 -171 -243 -70 -126 -84 -168 -125 -381 -3 -16 2 -100
13 -185 l19 -155 75 -166 c44 -100 100 -204 137 -258 300 -438 839 -837 1596
-1180 229 -103 607 -252 789 -311 39 -12 118 -40 177 -62 98 -36 138 -42 123
-17 -3 5 1 6 10 2 13 -4 14 -8 4 -14 -8 -4 -11 -10 -9 -12 9 -9 485 -161 610
-195 19 -5 114 -33 210 -60 166 -49 386 -109 495 -137 28 -7 147 -38 265 -68
118 -31 404 -104 635 -162 993 -252 1374 -357 1770 -489 622 -209 973 -390
1202 -622 223 -226 278 -483 166 -774 -44 -116 -103 -212 -249 -406 -186 -246
-384 -439 -665 -649 -1094 -814 -2989 -1334 -5194 -1425 -669 -28 -1163 -22
-1805 21 -864 58 -1676 193 -2260 375 -576 180 -913 393 -961 609 -12 53 -10
70 26 253 137 699 25 1280 -358 1852 -502 750 -1507 1411 -2982 1960 -244 91
-439 167 -615 241 -69 28 -140 57 -159 64 -18 7 -29 15 -24 18 6 4 32 -2 59
-12 27 -10 157 -59 289 -109 132 -50 319 -120 415 -155 1210 -447 2088 -947
2676 -1524 678 -666 930 -1429 764 -2313 -51 -274 -44 -312 78 -442 75 -79
156 -135 301 -208 552 -276 1554 -480 2801 -571 357 -26 1301 -37 1720 -20
1949 77 3669 491 4795 1155 429 254 790 563 1037 890 110 145 148 205 211 331
l20 40 -21 38 c-18 33 -19 37 -4 35 18 -3 19 11 11 160 -1 35 2 67 8 73 15 15
47 18 55 5 5 -7 8 -3 8 9 0 17 2 18 11 5 8 -11 9 7 5 65 -25 384 -466 705
-1391 1013 -416 138 -789 240 -2040 557 -1121 284 -1774 477 -2395 707 -491
182 -913 375 -1235 566 -340 202 -510 327 -723 536 -216 211 -330 372 -437
615 -75 170 -76 172 -95 324 l-20 153 30 143 c28 132 35 151 99 267 56 101 88
146 175 241 100 109 241 233 268 237 7 1 14 5 15 10 2 11 26 26 32 21 2 -3 -2
-12 -10 -21z m413 -103 c-15 -15 -58 -52 -97 -81 -127 -96 -160 -127 -261
-250 -89 -109 -105 -134 -155 -252 l-55 -131 4 -141 5 -141 83 -165 83 -165
167 -173 c218 -226 333 -314 625 -476 520 -291 1239 -487 2049 -561 857 -77
1863 -20 2750 156 363 72 975 235 1097 291 11 6 27 7 34 3 7 -5 10 -4 6 2 -6
9 55 34 93 38 8 1 24 6 36 13 11 6 90 40 175 75 387 161 760 378 982 570 298
258 507 560 633 912 24 69 48 119 54 117 7 -1 14 7 17 18 11 40 20 19 12 -28
-23 -147 -123 -371 -254 -568 -361 -542 -905 -890 -1895 -1209 -273 -88 -355
-112 -590 -169 -778 -188 -1535 -278 -2340 -278 -796 0 -1440 81 -2044 257
-232 68 -376 121 -681 252 -320 137 -574 318 -825 586 l-167 179 -80 161 -80
162 -5 141 -5 141 56 137 c54 131 60 141 161 257 82 95 134 143 239 222 157
119 233 162 173 98z m5300 -88 c-34 -48 -164 -163 -183 -163 -11 0 -19 -4 -19
-9 0 -5 -13 -11 -29 -13 -17 -2 -28 -1 -25 3 2 4 -1 11 -7 14 -6 4 -13 -2 -16
-14 -4 -14 -11 -20 -22 -17 -51 15 -71 17 -71 7 0 -6 -7 -11 -16 -11 -25 0 -7
18 44 43 26 13 82 43 125 68 118 67 219 119 229 119 5 0 1 -12 -10 -27z
m-4712 -7 c0 -2 -33 -29 -74 -60 -254 -191 -379 -387 -380 -596 -1 -249 194
-506 581 -766 251 -170 399 -247 653 -342 362 -135 729 -215 1231 -269 237
-25 974 -26 1244 0 621 58 1137 159 1680 329 127 40 290 97 350 123 17 7 48
18 70 25 22 7 45 16 50 20 14 11 85 40 85 35 0 -16 -262 -120 -495 -197 -561
-184 -1133 -297 -1795 -355 -247 -21 -835 -24 -1065 -5 -608 50 -1068 154
-1535 347 -356 147 -585 296 -815 530 -111 113 -139 148 -192 242 -58 101 -63
116 -78 216 l-16 107 29 98 c24 84 38 112 95 189 69 94 227 242 322 301 52 33
55 34 55 28z m2030 -50 c0 -2 -8 -10 -17 -17 -16 -13 -17 -12 -4 4 13 16 21
21 21 13z m-1397 -109 c-275 -230 -358 -459 -240 -666 86 -152 300 -332 599
-506 101 -58 73 -55 -39 5 -290 154 -522 359 -605 536 -29 61 -33 78 -32 154
0 99 27 175 97 269 61 83 270 279 300 281 4 0 -32 -33 -80 -73z m652 -9 c-165
-155 -249 -325 -232 -470 15 -120 107 -246 250 -337 77 -50 89 -64 20 -25
-157 90 -256 204 -289 334 -14 54 -14 72 -3 124 21 106 74 203 169 310 27 31
148 136 156 136 3 0 -29 -32 -71 -72z m1425 69 c0 -2 -10 -12 -22 -23 l-23
-19 19 23 c18 21 26 27 26 19z m-822 -89 c-104 -129 -151 -262 -128 -363 11
-49 6 -73 -7 -39 -5 10 -8 60 -7 109 0 78 4 97 28 145 26 50 131 190 143 190
3 0 -10 -19 -29 -42z m722 8 c0 -2 -8 -10 -17 -17 -16 -13 -17 -12 -4 4 13 16
21 21 21 13z m6119 -60 c15 -8 33 -22 41 -31 8 -10 20 -13 33 -9 19 6 20 3 13
-42 -7 -52 -26 -85 -26 -45 0 48 -18 7 -25 -56 -3 -38 -20 -106 -37 -153 -38
-105 -48 -176 -31 -210 21 -41 15 -68 -23 -110 -41 -45 -81 -53 -101 -21 -22
36 -35 146 -22 197 7 26 9 73 6 109 -3 35 -2 78 4 97 6 18 14 80 19 137 11
127 24 151 81 151 22 0 52 -6 68 -14z m-6239 -39 c0 -2 -12 -14 -27 -28 l-28
-24 24 28 c23 25 31 32 31 24z m610 -21 c0 -2 -8 -10 -17 -17 -16 -13 -17 -12
-4 4 13 16 21 21 21 13z m3790 -27 c0 8 2 12 5 9 3 -3 -21 -52 -52 -109 -40
-74 -98 -153 -200 -276 -161 -193 -240 -270 -395 -385 -120 -89 -348 -229
-361 -221 -5 3 18 21 50 40 241 147 453 318 574 462 200 239 246 297 301 389
41 67 64 98 70 90 6 -10 8 -10 8 1z m-4476 -54 c-4 -8 -11 -12 -17 -8 -6 4 -8
0 -4 -10 3 -9 1 -19 -5 -23 -7 -4 -8 -3 -4 4 4 7 1 12 -6 12 -8 1 -4 8 9 19
12 10 19 22 15 26 -4 5 -2 5 5 1 7 -4 10 -13 7 -21z m1146 15 c-8 -5 -22 -9
-30 -9 -10 0 -8 3 5 9 27 12 43 12 25 0z m-556 -25 c-4 -8 -8 -15 -10 -15 -2
0 -4 7 -4 15 0 8 4 15 10 15 5 0 7 -7 4 -15z m506 11 c0 -2 -9 -6 -20 -9 -11
-3 -18 -1 -14 4 5 9 34 13 34 5z m-500 -96 c0 -10 -38 -1 -45 10 -2 4 7 5 20
2 14 -2 25 -8 25 -12z m230 16 c0 -2 -7 -7 -16 -10 -8 -3 -12 -2 -9 4 6 10 25
14 25 6z m-909 -29 c-10 -9 -11 -8 -5 6 3 10 9 15 12 12 3 -3 0 -11 -7 -18z
m-1 -62 c0 -13 -4 -27 -10 -30 -5 -3 -10 -16 -10 -28 0 -18 2 -19 11 -7 8 11
9 7 4 -17 -4 -21 -3 -33 4 -33 6 0 8 -7 5 -15 -4 -8 -1 -15 5 -15 6 0 11 -4
11 -9 0 -12 47 -60 91 -93 19 -14 64 -35 100 -46 35 -12 57 -21 48 -21 -26 -1
-137 40 -150 55 -6 8 -17 14 -23 14 -13 0 -63 52 -87 90 -23 36 -34 107 -19
125 7 9 10 26 6 41 -5 17 -3 23 4 19 5 -3 10 -17 10 -30z m1690 11 c0 -2 -7
-7 -16 -10 -8 -3 -12 -2 -9 4 6 10 25 14 25 6z m-100 -46 c-19 -11 -39 -19
-45 -19 -5 0 6 8 25 19 19 11 40 19 45 19 6 0 -6 -8 -25 -19z m-2070 -138 c12
-13 20 -25 17 -28 -6 -6 -97 114 -97 129 0 6 13 -9 29 -34 16 -24 38 -54 51
-67z m1990 104 c0 -2 -21 -11 -47 -20 -51 -17 -51 -8 0 11 35 13 47 15 47 9z
m-120 -51 c-14 -8 -32 -14 -40 -14 -8 0 -1 6 15 14 40 18 57 18 25 0z m530 -5
c-8 -5 -19 -10 -25 -10 -5 0 -3 5 5 10 8 5 20 10 25 10 6 0 3 -5 -5 -10z
m-631 -36 c-62 -19 -72 -16 -19 5 25 10 49 15 54 13 5 -3 -11 -11 -35 -18z
m-6869 -14 c-8 -5 -19 -10 -25 -10 -5 0 -3 5 5 10 8 5 20 10 25 10 6 0 3 -5
-5 -10z m6799 -4 c-8 -8 -213 -65 -217 -61 -2 2 22 11 54 20 33 9 77 23 99 30
40 13 72 19 64 11z m561 -6 c-8 -5 -19 -10 -25 -10 -5 0 -3 5 5 10 8 5 20 10
25 10 6 0 3 -5 -5 -10z m-2180 -61 c3 -3 26 -18 53 -33 26 -15 47 -30 47 -33
0 -11 -97 51 -125 80 -22 23 -24 26 -5 12 14 -11 27 -23 30 -26z m1335 -20
c-59 -18 -131 -34 -108 -23 22 10 138 42 153 42 8 0 -12 -8 -45 -19z m1505 17
c0 -2 -9 -6 -20 -9 -11 -3 -18 -1 -14 4 5 9 34 13 34 5z m-100 -46 c-8 -5 -22
-9 -30 -9 -10 0 -8 3 5 9 27 12 43 12 25 0z m-1555 -10 c-16 -4 -41 -8 -55 -8
-22 0 -22 1 5 8 17 4 41 8 55 8 22 0 22 -1 -5 -8z m-1050 -28 c-3 -3 -11 0
-18 7 -9 10 -8 11 6 5 10 -3 15 -9 12 -12z m572 12 c-3 -3 -12 -4 -19 -1 -8 3
-5 6 6 6 11 1 17 -2 13 -5z m381 -1 c-10 -2 -26 -2 -35 0 -10 3 -2 5 17 5 19
0 27 -2 18 -5z m692 -8 c-19 -7 -42 -13 -50 -13 -8 0 1 6 20 13 19 7 42 13 50
13 8 0 -1 -6 -20 -13z m860 -5 c-19 -11 -39 -19 -45 -19 -5 0 6 8 25 19 19 11
40 19 45 19 6 0 -6 -8 -25 -19z m-1847 3 c-13 -2 -33 -2 -45 0 -13 2 -3 4 22
4 25 0 35 -2 23 -4z m200 0 c-13 -2 -35 -2 -50 0 -16 2 -5 4 22 4 28 0 40 -2
28 -4z m-793 -23 c8 -5 11 -10 5 -10 -5 0 -17 5 -25 10 -8 5 -10 10 -5 10 6 0
17 -5 25 -10z m50 -20 c8 -5 11 -10 5 -10 -5 0 -17 5 -25 10 -8 5 -10 10 -5
10 6 0 17 -5 25 -10z m1367 -6 c-3 -3 -12 -4 -19 -1 -8 3 -5 6 6 6 11 1 17 -2
13 -5z m898 -4 c-3 -5 -12 -10 -18 -10 -7 0 -6 4 3 10 19 12 23 12 15 0z
m-7329 -64 c28 -13 65 -41 83 -62 18 -22 73 -121 121 -221 100 -205 161 -307
260 -438 234 -308 567 -591 1050 -892 368 -229 976 -518 1530 -728 734 -277
1344 -459 2905 -865 1345 -350 1731 -469 2090 -645 182 -90 253 -168 263 -292
l5 -63 36 -6 c20 -4 54 -17 76 -29 22 -12 50 -26 62 -29 43 -13 114 -59 106
-67 -4 -4 -25 -4 -45 0 -20 5 -38 5 -40 1 -4 -11 -98 -19 -98 -9 0 5 -18 9
-40 9 -23 0 -40 5 -40 11 0 8 -6 7 -17 -2 -15 -13 -16 -9 -10 51 l7 65 -34
-83 c-41 -102 -77 -156 -210 -319 -459 -563 -1313 -990 -2561 -1278 -513 -118
-1516 -294 -1885 -329 -733 -72 -1718 -65 -2355 15 -332 42 -550 91 -709 161
-106 46 -146 74 -176 123 l-22 36 11 267 c10 255 10 277 -13 492 -20 188 -33
256 -74 415 -221 850 -800 1490 -1977 2183 -556 327 -1366 733 -1912 957 -79
32 -141 60 -139 62 3 4 250 -95 442 -177 389 -165 924 -433 1434 -718 1068
-597 1653 -1122 1990 -1786 139 -276 218 -531 266 -861 21 -148 29 -527 15
-688 -9 -105 -9 -134 3 -161 51 -122 383 -230 896 -290 718 -86 1884 -76 2575
20 166 23 890 149 1150 200 1347 264 2220 619 2787 1134 183 167 408 453 391
499 -4 8 -1 11 6 7 7 -5 9 -1 5 8 -4 10 -1 16 7 16 7 0 9 3 6 7 -4 3 0 11 8
17 22 17 47 124 39 171 -17 106 -85 171 -269 260 -169 82 -271 122 -542 211
-359 118 -629 193 -1848 509 -1956 509 -2973 873 -3920 1403 -603 338 -967
630 -1249 1002 -101 133 -169 248 -269 450 -61 126 -97 187 -127 217 -44 44
-99 69 -128 58 -9 -3 -48 -8 -87 -10 -72 -3 -80 -6 -358 -125 -55 -23 -101
-40 -103 -38 -5 6 337 157 404 179 82 26 165 24 228 -5z m7144 -1 c-86 -33
-332 -107 -336 -102 -2 2 53 21 123 43 71 21 155 49 188 61 33 12 67 22 75 22
8 0 -14 -11 -50 -24z m-2800 -60 c25 -13 41 -24 35 -24 -5 0 -30 11 -55 24
-25 13 -40 24 -35 24 6 0 30 -11 55 -24z m80 -35 c8 -5 11 -10 5 -10 -5 0 -17
5 -25 10 -8 5 -10 10 -5 10 6 0 17 -5 25 -10z m2355 -20 c-11 -5 -27 -9 -35
-9 -9 0 -8 4 5 9 11 5 27 9 35 9 9 0 8 -4 -5 -9z m-2098 -66 c-3 -3 -12 -4
-19 -1 -8 3 -5 6 6 6 11 1 17 -2 13 -5z m1790 -10 c-3 -3 -12 -4 -19 -1 -8 3
-5 6 6 6 11 1 17 -2 13 -5z m-160 -30 c-3 -3 -12 -4 -19 -1 -8 3 -5 6 6 6 11
1 17 -2 13 -5z m-70 -10 c-3 -3 -12 -4 -19 -1 -8 3 -5 6 6 6 11 1 17 -2 13 -5z
m-1180 -20 c-3 -3 -12 -4 -19 -1 -8 3 -5 6 6 6 11 1 17 -2 13 -5z m1040 0 c-3
-3 -12 -4 -19 -1 -8 3 -5 6 6 6 11 1 17 -2 13 -5z m1493 -34 c-8 -5 -19 -10
-25 -10 -5 0 -3 5 5 10 8 5 20 10 25 10 6 0 3 -5 -5 -10z m-180 -64 c0 -6
-121 -46 -134 -45 -6 0 18 11 54 24 68 25 80 28 80 21z m-3410 -46 c19 -11 31
-19 25 -19 -5 0 -26 8 -45 19 -19 11 -30 19 -25 19 6 0 26 -8 45 -19z m-4368
-32 c56 -17 126 -83 189 -180 261 -403 912 -971 1533 -1337 629 -371 1800
-829 3161 -1236 435 -130 727 -213 1650 -470 341 -95 775 -225 966 -291 286
-98 367 -144 413 -236 31 -62 32 -91 8 -156 -135 -353 -1042 -850 -2177 -1191
-631 -190 -1225 -309 -1843 -368 -253 -24 -318 -26 -757 -27 -496 -1 -613 5
-910 45 -515 69 -827 204 -922 396 -26 53 -26 57 -20 201 3 81 2 193 -4 249
-47 498 -311 1037 -750 1528 -607 680 -1383 1158 -3317 2046 -143 65 -102 57
59 -12 707 -303 1613 -763 2144 -1089 549 -336 1019 -746 1337 -1167 333 -439
530 -898 567 -1318 4 -55 6 -162 3 -238 -6 -169 5 -204 87 -286 129 -129 407
-228 803 -286 441 -64 1134 -70 1726 -15 812 76 1797 319 2560 632 81 33 163
66 182 73 66 25 425 202 554 273 402 224 661 476 659 643 -2 122 -87 183 -418
295 -247 84 -586 185 -1140 339 -1914 532 -2802 823 -3765 1235 -719 308
-1211 601 -1715 1020 -262 217 -543 513 -687 724 -123 179 -155 201 -287 194
-70 -4 -114 -14 -239 -57 -85 -29 -161 -54 -170 -57 -38 -10 78 39 157 67 186
66 282 81 363 57z m4528 -33 c130 -50 138 -61 11 -15 -75 28 -144 59 -131 59
3 1 57 -19 120 -44z m3025 35 c-11 -5 -27 -9 -35 -9 -9 0 -8 4 5 9 11 5 27 9
35 9 9 0 8 -4 -5 -9z m1344 -3 c-2 -1 -13 -9 -24 -17 -19 -14 -19 -14 -6 3 7
9 18 17 24 17 6 0 8 -1 6 -3z m-1414 -17 c-11 -5 -27 -9 -35 -9 -9 0 -8 4 5 9
11 5 27 9 35 9 9 0 8 -4 -5 -9z m-70 -20 c-11 -5 -27 -9 -35 -9 -9 0 -8 4 5 9
11 5 27 9 35 9 9 0 8 -4 -5 -9z m1425 3 c-8 -3 -24 -10 -35 -15 -20 -9 -20 -9
-1 6 11 9 27 16 35 15 14 0 14 -1 1 -6z m-1483 -19 c-3 -3 -12 -4 -19 -1 -8 3
-5 6 6 6 11 1 17 -2 13 -5z m1418 -4 c-3 -5 -12 -10 -18 -10 -7 0 -6 4 3 10
19 12 23 12 15 0z m-1492 -17 c-7 -2 -19 -2 -25 0 -7 3 -2 5 12 5 14 0 19 -2
13 -5z m-2515 -34 c45 -12 80 -24 78 -26 -5 -5 -139 31 -176 47 -31 13 -10 9
98 -21z m2469 25 c-3 -3 -12 -4 -19 -1 -8 3 -5 6 6 6 11 1 17 -2 13 -5z m-57
-14 c-14 -4 -34 -8 -45 -8 -16 0 -15 2 5 8 14 4 34 8 45 8 16 0 15 -2 -5 -8z
m-115 -26 c-27 -7 -59 -13 -70 -13 -24 1 71 26 100 27 11 0 -2 -6 -30 -14z
m-2178 -20 c-3 -3 -12 -4 -19 -1 -8 3 -5 6 6 6 11 1 17 -2 13 -5z m2058 -4
c-16 -4 -41 -8 -55 -8 -22 0 -22 1 5 8 17 4 41 8 55 8 22 0 22 -1 -5 -8z
m-1960 -15 c28 -7 41 -13 30 -13 -11 0 -42 6 -70 13 -27 7 -41 13 -30 13 11 0
43 -6 70 -13z m1868 -2 c-7 -2 -19 -2 -25 0 -7 3 -2 5 12 5 14 0 19 -2 13 -5z
m-50 -10 c-7 -2 -21 -2 -30 0 -10 3 -4 5 12 5 17 0 24 -2 18 -5z m-1720 -10
c-7 -2 -19 -2 -25 0 -7 3 -2 5 12 5 14 0 19 -2 13 -5z m1660 0 c-7 -2 -21 -2
-30 0 -10 3 -4 5 12 5 17 0 24 -2 18 -5z m-1600 -10 c-7 -2 -21 -2 -30 0 -10
3 -4 5 12 5 17 0 24 -2 18 -5z m1525 0 c-10 -2 -26 -2 -35 0 -10 3 -2 5 17 5
19 0 27 -2 18 -5z m-1465 -10 c-7 -2 -21 -2 -30 0 -10 3 -4 5 12 5 17 0 24 -2
18 -5z m1390 0 c-7 -2 -21 -2 -30 0 -10 3 -4 5 12 5 17 0 24 -2 18 -5z m-1320
-10 c-7 -2 -21 -2 -30 0 -10 3 -4 5 12 5 17 0 24 -2 18 -5z m1240 0 c-7 -2
-21 -2 -30 0 -10 3 -4 5 12 5 17 0 24 -2 18 -5z m-1155 -10 c-10 -2 -26 -2
-35 0 -10 3 -2 5 17 5 19 0 27 -2 18 -5z m1075 0 c-13 -2 -33 -2 -45 0 -13 2
-3 4 22 4 25 0 35 -2 23 -4z m-975 -10 c-10 -2 -28 -2 -40 0 -13 2 -5 4 17 4
22 1 32 -1 23 -4z m855 0 c-13 -2 -33 -2 -45 0 -13 2 -3 4 22 4 25 0 35 -2 23
-4z m-715 -10 c-21 -2 -55 -2 -75 0 -21 2 -4 4 37 4 41 0 58 -2 38 -4z m580 0
c-16 -2 -40 -2 -55 0 -16 2 -3 4 27 4 30 0 43 -2 28 -4z m-246 -10 c-51 -2
-132 -2 -180 0 -48 1 -6 3 93 3 99 0 138 -2 87 -3z m5475 -54 c-15 -9 -16 -13
-5 -27 12 -15 11 -16 -5 -3 -13 10 -15 17 -6 27 6 8 17 14 23 14 6 0 3 -5 -7
-11z m-41 -47 c-11 -2 -25 -8 -30 -12 -5 -5 2 -7 15 -3 19 4 17 0 -11 -17
-256 -164 -971 -365 -1895 -534 -835 -153 -1625 -279 -2330 -371 -369 -48
-452 -62 -531 -86 -84 -26 -114 -45 -114 -73 0 -83 268 -190 1071 -426 1225
-360 1976 -630 2504 -900 342 -174 552 -317 731 -495 130 -129 184 -201 238
-317 45 -97 56 -148 56 -266 0 -181 -66 -349 -261 -662 -241 -389 -302 -511
-335 -672 -39 -191 9 -387 124 -511 139 -148 543 -341 970 -463 73 -20 83 -30
47 -46 -22 -10 -47 -4 -188 42 -391 127 -725 289 -875 425 -53 47 -105 133
-139 227 -23 63 -26 89 -27 193 0 103 4 132 28 209 50 162 85 229 294 565 128
206 187 321 179 351 -3 11 -1 20 4 20 5 0 8 6 6 13 -1 6 3 11 9 10 7 -1 10 6
7 16 -3 10 0 22 6 25 7 5 9 0 5 -11 -5 -16 -4 -16 6 1 15 23 61 232 67 306 16
181 -125 420 -367 622 -324 271 -829 529 -1545 790 -341 124 -740 253 -1445
465 -738 221 -910 279 -1084 364 -218 106 -190 186 84 243 42 8 215 34 385 56
880 116 1544 220 2195 346 1180 228 1844 409 2100 572 32 21 48 26 56 18 9 -8
7 -12 -10 -14z m-11862 -213 c345 -69 558 -211 742 -496 119 -184 184 -241
378 -333 119 -57 220 -93 549 -194 292 -90 405 -135 551 -218 196 -113 332
-242 472 -448 35 -52 81 -114 102 -137 82 -91 211 -165 404 -231 107 -37 172
-54 658 -172 321 -77 365 -92 915 -310 657 -261 919 -334 1480 -415 357 -52
466 -74 620 -127 145 -49 330 -165 391 -245 90 -118 67 -234 -69 -357 -133
-118 -318 -218 -617 -331 -752 -284 -2017 -535 -2701 -535 -420 0 -819 75
-1074 203 -283 141 -434 363 -405 593 21 159 70 251 292 540 237 309 291 414
291 559 0 98 -34 168 -127 260 -139 137 -260 175 -644 200 -372 24 -577 67
-756 157 -191 96 -289 205 -396 444 -83 186 -134 266 -226 353 -105 100 -192
142 -498 243 -349 114 -440 170 -506 305 -18 37 -42 88 -54 112 -30 62 -93
114 -169 139 -85 28 -217 45 -248 33 -13 -5 -17 -10 -9 -10 8 -1 21 -10 27
-21 12 -17 9 -20 -22 -26 -37 -7 -198 13 -228 28 -10 5 -28 11 -40 14 -12 2
-44 10 -72 18 -27 8 -96 21 -152 30 -225 34 -279 124 -129 214 96 58 304 115
554 152 299 43 529 46 716 9z m-2827 -151 c-1 -15 10 -30 40 -52 49 -36 58
-57 11 -24 -59 41 -80 73 -61 91 11 11 13 8 10 -15z m-2942 -81 c46 -16 40
-16 -37 0 -15 3 -29 12 -32 20 -4 9 -2 11 7 6 6 -4 35 -16 62 -26z m3095 -42
c14 -8 21 -14 15 -14 -5 0 -21 6 -35 14 -14 8 -20 14 -15 14 6 0 21 -6 35 -14z
m96 -53 c-5 -4 -66 26 -66 33 0 3 16 -3 35 -12 19 -9 33 -18 31 -21z m44 -12
c8 -5 11 -10 5 -10 -5 0 -17 5 -25 10 -8 5 -10 10 -5 10 6 0 17 -5 25 -10z
m90 -36 c33 -15 59 -29 57 -31 -2 -2 -33 10 -68 26 -80 37 -72 40 11 5z m-650
-54 c8 -5 11 -10 5 -10 -5 0 -17 5 -25 10 -8 5 -10 10 -5 10 6 0 17 -5 25 -10z
m80 -30 c8 -5 11 -10 5 -10 -5 0 -17 5 -25 10 -8 5 -10 10 -5 10 6 0 17 -5 25
-10z m50 -20 c8 -5 11 -10 5 -10 -5 0 -17 5 -25 10 -8 5 -10 10 -5 10 6 0 17
-5 25 -10z m-820 -100 c8 -5 11 -10 5 -10 -5 0 -17 5 -25 10 -8 5 -10 10 -5
10 6 0 17 -5 25 -10z m110 -40 c8 -5 11 -10 5 -10 -5 0 -17 5 -25 10 -8 5 -10
10 -5 10 6 0 17 -5 25 -10z m8757 -376 c-3 -3 -12 -4 -19 -1 -8 3 -5 6 6 6 11
1 17 -2 13 -5z m163 -25 c30 -5 116 -15 190 -24 74 -8 167 -19 205 -24 149
-20 298 -28 770 -39 176 -4 355 -6 398 -4 l77 4 0 -31 c0 -16 -3 -32 -7 -34
-5 -3 -35 -1 -68 4 -33 4 -181 9 -330 10 -272 1 -312 4 -575 39 -159 21 -229
29 -335 36 -38 2 -81 7 -95 11 -14 3 -54 9 -90 13 -129 15 -220 34 -225 48 -4
10 0 12 12 7 10 -5 43 -12 73 -16z m6140 -529 c8 -5 11 -10 5 -10 -5 0 -17 5
-25 10 -8 5 -10 10 -5 10 6 0 17 -5 25 -10z m-2210 -1809 c0 -6 -4 -13 -10
-16 -5 -3 -10 1 -10 9 0 9 5 16 10 16 6 0 10 -4 10 -9z m-12204 -83 c-21 -133
-172 -242 -325 -237 -82 3 -112 9 -105 20 3 5 16 9 29 9 24 0 87 29 93 43 2 4
17 14 33 22 16 9 29 22 29 30 0 11 11 15 40 15 34 0 40 3 40 21 0 12 5 19 13
16 17 -6 84 31 106 59 10 13 24 24 30 24 6 0 11 5 11 10 0 6 3 10 6 10 4 0 3
-19 0 -42z m-2558 -5 c-32 -2 -84 -2 -115 0 -32 2 -6 3 57 3 63 0 89 -1 58 -3z
m105 0 c-7 -2 -19 -2 -25 0 -7 3 -2 5 12 5 14 0 19 -2 13 -5z m-836 -339 c-3
-3 -12 -4 -19 -1 -8 3 -5 6 6 6 11 1 17 -2 13 -5z m4292 -173 c-14 -49 -78
-123 -139 -160 -75 -45 -76 -14 -1 37 26 18 59 47 72 65 28 39 68 121 70 144
1 10 4 5 6 -11 3 -16 -1 -50 -8 -75z m-4136 -128 c-7 -2 -19 -2 -25 0 -7 3 -2
5 12 5 14 0 19 -2 13 -5z m-50 -10 c-7 -2 -21 -2 -30 0 -10 3 -4 5 12 5 17 0
24 -2 18 -5z m-70 -10 c-7 -2 -19 -2 -25 0 -7 3 -2 5 12 5 14 0 19 -2 13 -5z"/>
<path d="M4088 10753 c7 -3 16 -2 19 1 4 3 -2 6 -13 5 -11 0 -14 -3 -6 -6z"/>
<path d="M4965 10530 c-3 -6 1 -7 9 -4 18 7 21 14 7 14 -6 0 -13 -4 -16 -10z"/>
<path d="M4848 10523 c6 -2 18 -2 25 0 6 3 1 5 -13 5 -14 0 -19 -2 -12 -5z"/>
<path d="M10773 10619 c14 -8 22 -8 30 0 8 8 3 11 -18 11 -26 -1 -28 -2 -12
-11z"/>
<path d="M18040 10580 c6 -11 13 -20 16 -20 2 0 0 9 -6 20 -6 11 -13 20 -16
20 -2 0 0 -9 6 -20z"/>
<path d="M9855 10360 c-13 -5 -14 -9 -5 -9 8 0 24 4 35 9 13 5 14 9 5 9 -8 0
-24 -4 -35 -9z"/>
<path d="M10760 10300 c-11 -7 -6 -10 20 -10 26 0 31 3 20 10 -8 5 -17 10 -20
10 -3 0 -12 -5 -20 -10z"/>
<path d="M10855 10300 c-18 -8 -17 -9 8 -9 16 -1 26 3 22 9 -3 6 -7 10 -8 9
-1 0 -11 -4 -22 -9z"/>
<path d="M7350 8736 c-5 -13 -18 -30 -29 -38 -12 -8 -18 -18 -15 -21 7 -7 64
60 64 74 0 17 -11 9 -20 -15z"/>
<path d="M5950 6253 c-426 -43 -723 -125 -769 -212 -17 -30 -13 -66 8 -85 45
-40 141 -53 516 -66 234 -8 269 -11 350 -35 55 -16 111 -40 145 -63 50 -34 60
-47 115 -156 44 -87 70 -126 100 -150 21 -17 35 -25 31 -18 -7 11 -4 12 13 3
22 -12 30 -37 9 -26 -7 4 -4 -1 7 -10 40 -34 163 -86 305 -131 338 -106 456
-162 567 -267 89 -85 136 -158 222 -346 37 -80 83 -171 103 -201 104 -157 270
-264 503 -325 160 -41 253 -54 640 -86 291 -24 478 -103 594 -249 67 -84 84
-132 84 -230 1 -144 -53 -252 -262 -530 -155 -205 -195 -265 -242 -363 -95
-199 -87 -374 24 -530 73 -101 156 -167 305 -241 286 -143 768 -216 1236 -186
841 52 2088 339 2696 620 507 233 611 454 314 666 -170 122 -355 175 -839 244
-552 78 -850 160 -1475 410 -598 239 -678 265 -1154 375 -601 139 -797 238
-958 480 -160 239 -305 375 -520 485 -135 70 -237 108 -509 189 -443 132 -620
205 -764 314 -60 45 -84 73 -169 202 -110 167 -231 296 -328 353 -129 76 -311
137 -483 162 -65 9 -335 11 -415 3z m4545 -2836 c463 -164 692 -241 1036 -347
296 -92 345 -110 396 -144 54 -37 67 -61 53 -95 -17 -41 -78 -70 -310 -146
-261 -85 -506 -148 -724 -184 -434 -74 -593 -67 -682 30 -38 42 -49 70 -69
181 -9 49 -29 130 -46 180 -37 111 -190 429 -248 513 -48 70 -51 98 -16 121
39 25 83 34 160 30 59 -4 129 -25 450 -139z"/>
<path d="M9932 3514 c-30 -21 -28 -38 11 -93 82 -113 217 -384 271 -546 14
-42 33 -115 42 -162 20 -108 28 -131 62 -166 37 -39 53 -47 124 -58 147 -24
660 62 1023 172 383 116 486 162 459 206 -23 38 -94 74 -234 118 -452 144
-836 272 -1197 400 -366 130 -414 145 -473 145 -43 0 -73 -5 -88 -16z"/>
<path d="M280 12070 c0 -5 9 -10 20 -10 11 0 20 5 20 10 0 6 -9 10 -20 10 -11
0 -20 -4 -20 -10z"/>
<path d="M138 12063 c7 -3 16 -2 19 1 4 3 -2 6 -13 5 -11 0 -14 -3 -6 -6z"/>
<path d="M19180 5420 c-8 -4 -132 -45 -275 -91 -143 -45 -276 -92 -295 -104
-80 -51 -128 -122 -115 -172 14 -56 77 -97 391 -256 170 -86 310 -155 311
-153 2 2 2 179 1 394 -3 344 -5 390 -18 382z"/>
<path d="M17886 4681 c-3 -5 3 -11 13 -14 14 -3 18 -1 14 9 -6 16 -19 18 -27
5z"/>
<path d="M17939 4678 c-6 -21 -5 -38 1 -38 5 0 8 9 7 20 -1 17 -5 26 -8 18z"/>
<path d="M17865 4660 c3 -5 -3 -11 -12 -13 -15 -4 -15 -5 2 -6 11 0 26 3 33 8
10 6 9 10 -7 14 -12 3 -19 1 -16 -3z"/>
<path d="M17670 4645 c0 -8 5 -15 11 -15 5 0 8 4 5 9 -4 5 0 12 6 14 8 3 6 6
-4 6 -10 1 -18 -6 -18 -14z"/>
<path d="M17760 4650 c0 -5 5 -10 11 -10 5 0 7 5 4 10 -3 6 -8 10 -11 10 -2 0
-4 -4 -4 -10z"/>
<path d="M17970 4650 c-9 -6 -10 -10 -3 -10 6 0 15 5 18 10 8 12 4 12 -15 0z"/>
<path d="M18035 4591 c-6 -11 13 -26 22 -17 4 3 1 6 -6 6 -7 0 -9 5 -6 10 3 6
4 10 1 10 -3 0 -7 -4 -11 -9z"/>
<path d="M0 4373 l0 -218 95 -44 c141 -65 342 -182 413 -241 78 -63 108 -120
91 -170 -9 -23 -9 -34 0 -43 6 -6 11 -34 11 -62 0 -69 -28 -97 -105 -103 -30
-2 -55 -2 -55 2 0 3 16 30 35 60 36 57 34 73 -7 57 -40 -15 -217 -49 -318 -61
-52 -6 -110 -13 -127 -16 l-33 -5 0 -173 0 -173 598 -7 c584 -7 725 -3 902 25
252 39 373 119 356 234 -22 143 -256 343 -702 600 -145 84 -672 352 -804 409
-36 16 -125 55 -199 87 -74 33 -138 59 -143 59 -4 0 -8 -98 -8 -217z"/>
<path d="M17720 4521 c0 -33 3 -39 25 -43 18 -4 26 0 31 15 8 26 -15 67 -38
67 -14 0 -18 -8 -18 -39z"/>
<path d="M17819 4458 c4 -13 20 -30 34 -38 24 -13 28 -13 43 2 15 14 15 19 4
33 -9 11 -22 14 -37 10 -13 -3 -23 -1 -23 5 0 5 -7 10 -15 10 -11 0 -12 -6 -6
-22z"/>
<path d="M17740 4450 c0 -5 5 -10 10 -10 6 0 10 5 10 10 0 6 -4 10 -10 10 -5
0 -10 -4 -10 -10z"/>
<path d="M17920 4430 c0 -13 5 -20 13 -17 6 2 12 10 12 17 0 7 -6 15 -12 18
-8 2 -13 -5 -13 -18z"/>
<path d="M17870 4385 c0 -8 6 -15 14 -15 7 0 19 7 26 15 11 13 8 15 -14 15
-16 0 -26 -5 -26 -15z"/>
<path d="M17960 4390 c0 -5 -7 -10 -16 -10 -18 0 -37 -18 -47 -44 -5 -14 -4
-17 8 -12 8 3 15 1 15 -5 0 -6 4 -8 9 -5 4 3 16 -3 26 -14 10 -11 22 -17 27
-14 5 3 20 3 34 0 17 -5 24 -13 24 -30 0 -22 15 -35 48 -42 20 -4 66 -36 80
-56 8 -10 25 -18 42 -18 20 0 31 -6 35 -20 4 -13 15 -20 31 -20 15 0 24 -6 24
-16 0 -11 6 -13 19 -9 13 4 23 0 29 -11 5 -9 22 -18 37 -19 15 -2 31 -9 35
-15 4 -7 19 -13 34 -13 16 -1 24 -7 21 -14 -2 -7 0 -13 6 -13 6 0 20 -11 31
-25 15 -19 29 -25 57 -25 25 0 44 -7 56 -20 10 -11 39 -32 64 -47 25 -14 58
-39 74 -55 15 -15 27 -25 27 -21 0 3 10 -3 23 -14 12 -11 38 -26 57 -33 19 -7
42 -19 51 -27 8 -7 19 -13 23 -13 5 0 17 -11 28 -25 11 -14 26 -25 33 -25 7 0
20 -6 27 -13 20 -19 117 -87 125 -87 3 0 15 -7 25 -17 17 -15 18 -13 18 74 0
99 -2 103 -71 103 -15 0 -32 7 -39 15 -7 8 -20 15 -30 15 -10 0 -20 6 -23 13
-2 7 -26 18 -51 25 -28 7 -62 26 -82 46 -20 19 -42 32 -50 29 -7 -3 -21 2 -30
11 -8 9 -20 14 -25 11 -4 -3 -23 2 -40 11 -24 12 -28 18 -18 24 9 6 5 11 -17
16 -58 14 -114 52 -127 87 -3 9 -13 17 -21 17 -7 0 -16 7 -19 14 -3 8 -22 18
-41 22 -20 3 -36 10 -36 14 0 5 -18 19 -40 31 -22 13 -40 26 -40 31 0 4 -9 8
-21 8 -11 0 -32 9 -46 20 -14 11 -32 20 -39 20 -8 0 -14 5 -14 10 0 6 -7 10
-16 10 -9 0 -18 8 -21 18 -2 11 -28 27 -64 41 -58 24 -71 35 -47 43 8 3 2 15
-16 33 -21 21 -30 25 -36 15 -6 -10 -16 -9 -45 8 -38 23 -75 29 -75 12z m120
-80 c0 -5 -6 -10 -14 -10 -8 0 -18 5 -21 10 -3 6 3 10 14 10 12 0 21 -4 21
-10z"/>
<path d="M18835 4204 c-19 -14 -19 -16 -2 -25 9 -6 15 -14 12 -19 -5 -9 15
-39 45 -67 25 -23 114 -83 133 -89 9 -4 17 -9 17 -13 0 -3 21 -17 48 -31 26
-13 58 -32 71 -42 13 -10 28 -18 32 -18 5 0 9 38 9 84 l0 84 -109 56 c-69 35
-116 54 -128 50 -13 -4 -14 -3 -5 4 10 7 7 12 -15 20 -53 20 -87 22 -108 6z"/>
<path d="M0 3840 l0 -291 68 7 c179 16 370 57 444 95 151 77 35 211 -348 403
-84 42 -155 76 -158 76 -3 0 -6 -131 -6 -290z"/>
<path d="M535 3637 c-10 -8 -15 -19 -11 -25 11 -18 26 -14 19 5 -4 10 -2 14 4
10 5 -3 10 0 10 8 0 18 1 18 -22 2z"/>
<path d="M2540 3020 c0 -7 -7 -9 -16 -6 -12 4 -15 2 -10 -9 3 -9 0 -15 -9 -15
-7 0 -16 -4 -19 -9 -4 -5 4 -7 16 -4 29 7 61 40 48 48 -6 3 -10 1 -10 -5z"/>
<path d="M2463 2954 c0 -9 8 -9 29 -2 35 13 35 15 0 14 -16 -1 -29 -6 -29 -12z"/>
<path d="M18863 2638 c-14 -17 -5 -78 12 -78 7 0 15 -7 19 -15 3 -8 1 -15 -4
-15 -6 0 -10 -9 -10 -20 0 -11 3 -20 8 -20 12 0 33 40 27 50 -4 6 -1 10 4 10
6 0 11 5 11 11 0 5 -4 8 -9 5 -4 -3 -6 7 -4 22 4 22 2 24 -7 12 -10 -12 -11
-11 -7 8 3 13 3 21 0 18 -3 -3 -11 1 -18 10 -9 13 -13 13 -22 2z"/>
</g>
</svg>
